<svg xmlns="http://www.w3.org/2000/svg" width="194.8" height="25.5" viewBox="0 0 194.8 25.5"><g fill="#F9F9FA"><path d="M.2 9.3h1.1v11.8H.2V9.3zM3.8 9.3h5c2 0 3.8.7 3.8 2.9 0 1.2-.8 2.4-2.1 2.6 1.5.2 2.5 1.3 2.5 2.9 0 1.1-.4 3.4-4.2 3.4h-5V9.3zm1.1 5.2h3.9c1.8 0 2.7-.9 2.7-2 0-1.5-.9-2.2-2.7-2.2H4.9v4.2zm0 5.7h3.9c1.7 0 3.1-.5 3.1-2.4 0-1.5-1.1-2.3-3.1-2.3H4.9v4.7zM14.7 9.3h1.7l4.1 10.3 4.1-10.3h1.7v11.8h-1.1V10.9l-4 10.2H20l-4.1-10.2v10.2h-1.1V9.3zM43.5 21.1h-2.6l-2-8-2 8h-2.6L31.2 9.3h2.6l1.9 8 2.1-8h2.4l2 8.1 1.9-8.1h2.5l-3.1 11.8zM46.6 15.2c.1-2.2 2.1-2.9 4-2.9 1.7 0 3.8.4 3.8 2.4v4.4c0 .8.1 1.6.3 1.9h-2.4c-.1-.3-.1-.5-.2-.8-.7.8-1.8 1.1-2.9 1.1-1.6 0-2.9-.8-2.9-2.6 0-3.9 5.8-1.8 5.7-3.7 0-1-.7-1.2-1.5-1.2-.9 0-1.5.4-1.6 1.3h-2.3zM52 17c-.4.3-1.2.4-2 .5-.7.1-1.4.4-1.4 1.3s.7 1.1 1.4 1.1c1.8 0 1.9-1.4 1.9-2V17zM59 12.6h1.7v1.6H59v4.2c0 .8.2 1 1 1 .3 0 .5 0 .7-.1v1.8c-.4.1-.9.1-1.4.1-1.5 0-2.7-.3-2.7-2v-5h-1.4v-1.6h1.4V10H59v2.6zM63.7 18.4c0 1 .9 1.4 1.8 1.4.7 0 1.5-.3 1.5-1.1 0-.7-1-1-2.7-1.3-1.4-.3-2.7-.8-2.7-2.3 0-2.2 1.9-2.7 3.7-2.7 1.9 0 3.6.6 3.8 2.7h-2.2c-.1-.9-.8-1.2-1.6-1.2-.5 0-1.3.1-1.3.8 0 .8 1.3 1 2.7 1.3 1.4.3 2.7.8 2.7 2.4 0 2.2-2 3-3.9 3-2 0-3.9-.7-4-3h2.2zM74.5 12.4c2.7 0 4.4 1.8 4.4 4.5s-1.7 4.5-4.4 4.5-4.4-1.8-4.4-4.5c0-2.8 1.8-4.5 4.4-4.5zm0 7.2c1.6 0 2.1-1.4 2.1-2.7 0-1.4-.5-2.7-2.1-2.7s-2.1 1.4-2.1 2.7c.1 1.3.6 2.7 2.1 2.7zM80.2 12.6h2.2v1.2c.6-1 1.6-1.4 2.6-1.4 2.5 0 3.1 1.4 3.1 3.5v5.3h-2.3v-4.8c0-1.4-.4-2.1-1.5-2.1-1.3 0-1.8.7-1.8 2.4v4.5h-2.3v-8.6zM93.9 9.3H99c3.1 0 5.4 1.9 5.4 5.8 0 3.4-1.8 6-5.4 6h-5.1V9.3zm2.6 9.7h2.3c1.5 0 2.9-.9 2.9-3.5 0-2.4-.8-3.9-3.4-3.9h-1.9V19zM107.5 17.4c.1 1.5.8 2.2 2.1 2.2.9 0 1.7-.6 1.9-1.1h2.1c-.7 2-2.1 2.9-4 2.9-2.7 0-4.4-1.9-4.4-4.5s1.8-4.5 4.4-4.5c2.9 0 4.3 2.4 4.1 5.1h-6.2zm3.9-1.4c-.2-1.2-.7-1.8-1.9-1.8-1.5 0-1.9 1.2-2 1.8h3.9zM116.8 18.4c0 1 .9 1.4 1.8 1.4.7 0 1.5-.3 1.5-1.1 0-.7-1-1-2.7-1.3-1.4-.3-2.7-.8-2.7-2.3 0-2.2 1.9-2.7 3.7-2.7 1.9 0 3.6.6 3.8 2.7H120c-.1-.9-.8-1.2-1.6-1.2-.5 0-1.3.1-1.3.8 0 .8 1.3 1 2.7 1.3 1.4.3 2.7.8 2.7 2.4 0 2.2-2 3-3.9 3-2 0-3.9-.7-4-3h2.2zM126 11.3h-2.3v-2h2.3v2zm-2.4 1.3h2.3v8.5h-2.3v-8.5zM135.7 20.6c0 1.4-.5 3.8-4.4 3.8-1.7 0-3.6-.8-3.8-2.7h2.3c.2.9.9 1.2 1.8 1.2 1.3 0 1.9-.9 1.9-2.1v-1.1c-.5.9-1.5 1.3-2.6 1.3-2.6 0-3.7-2-3.7-4.3 0-2.2 1.3-4.2 3.7-4.2 1.1 0 2 .4 2.5 1.4v-1.1h2.2v7.8zm-2.2-3.8c0-1.4-.5-2.6-2-2.6-1.3 0-1.9 1.2-1.9 2.4s.4 2.6 1.9 2.6c1.3-.1 2-1.2 2-2.4zM137.2 12.6h2.2v1.2c.6-1 1.6-1.4 2.6-1.4 2.5 0 3.1 1.4 3.1 3.5v5.3h-2.3v-4.8c0-1.4-.4-2.1-1.5-2.1-1.3 0-1.8.7-1.8 2.4v4.5h-2.3v-8.6zM159.4 19.8c-.9 1.2-2.1 1.6-3.2 1.6-3.6 0-5.8-2.7-5.8-6.1 0-3.5 2.2-6.2 5.8-6.2 2.4 0 4.7 1.5 5 4.2h-2.5c-.3-1.3-1.3-2-2.5-2-2.3 0-3.2 2-3.2 4.1 0 2 .9 4 3.2 4 1.7 0 2.7-.9 2.8-2.5h-2.6V15h5v6.4h-1.7l-.3-1.6zM171 21.1h-2.2V20c-.6 1-1.6 1.4-2.6 1.4-2.5 0-3.1-1.4-3.1-3.5v-5.3h2.3v4.8c0 1.4.4 2.1 1.5 2.1 1.3 0 1.8-.7 1.8-2.4v-4.5h2.3v8.5zM174.9 11.3h-2.3v-2h2.3v2zm-2.3 1.3h2.3v8.5h-2.3v-8.5zM182.6 20.1c-.6.9-1.5 1.3-2.6 1.3-2.6 0-3.8-2.2-3.8-4.6 0-2.3 1.3-4.4 3.8-4.4 1 0 2 .4 2.5 1.3V9.3h2.3v11.8h-2.2v-1zm-2-6c-1.5 0-2.1 1.3-2.1 2.7 0 1.3.6 2.7 2.1 2.7s2-1.4 2-2.8c0-1.2-.5-2.6-2-2.6zM188.3 17.4c.1 1.5.8 2.2 2.1 2.2.9 0 1.7-.6 1.9-1.1h2.1c-.7 2-2.1 2.9-4 2.9-2.7 0-4.4-1.9-4.4-4.5s1.8-4.5 4.4-4.5c2.9 0 4.3 2.4 4.1 5.1h-6.2zm3.8-1.4c-.2-1.2-.7-1.8-1.9-1.8-1.5 0-1.9 1.2-2 1.8h3.9z"/></g></svg>