<svg xmlns="http://www.w3.org/2000/svg" width="792" height="491.3" viewBox="0 61.7 792 491.3"><path fill="#ECECEC" d="M0 61.7h792V553H0z"/><g fill="#959595"><path d="M23.8 84.8h438.7v445.1H23.8zM469.5 84.8h70.3v445.1h-70.3zM548 84.8h18.7v445.1H548zM575.4 84.8h20.1v445.1h-20.1zM603.3 84.8h162.5v445.1H603.3z"/></g><path fill="#ECECEC" d="M484.7 529.5c-121.3 0-235.3-45.9-321.1-129.2-85.7-83.3-140-197.7-140-315.5h8c0 115.8 53.4 228.2 137.7 310s196.3 126.9 315.4 126.9c151.2 0 274.2-119.5 274.2-266.3 0-89.9-75.3-163.1-167.9-163.1-56.4 0-102.3 44.6-102.3 99.3 0 33 27.7 59.9 61.7 59.9 20.2 0 36.6-15.9 36.6-35.5 0-11.3-9.5-20.5-21.1-20.5-6.4 0-11.5 5-11.5 11.2 0 3 2.5 5.4 5.6 5.4 1.1 0 1.9-.8 1.9-1.9h8c0 5.3-4.4 9.6-9.9 9.6-7.5 0-13.6-5.9-13.6-13.2 0-10.4 8.7-18.9 19.5-18.9 16 0 29.1 12.7 29.1 28.2 0 23.9-20 43.3-44.6 43.3-38.4 0-69.6-30.3-69.6-67.6 0-59 49.4-107.1 110.2-107.1 97 0 175.9 76.6 175.9 170.9 0 151.1-126.6 274.1-282.2 274.1z"/></svg>