<svg xmlns="http://www.w3.org/2000/svg" width="792" height="491.3" viewBox="0 61.7 792 491.3"><path fill="#ECECEC" d="M.3 61.7H792V553H.3z"/><path fill="#D3D3D3" d="M24.1 82.1h151.2v445.2H24.1zM616.6 82.1h149.2v445.2H616.6zM214.7 82.1h40.7v445.2h-40.7zM540.6 82.1h40.7v445.2h-40.7zM290.7 84h85v445.2h-85zM416.7 82.1h85v445.2h-85z"/><path opacity=".4" fill="#777677" d="M24.1 235.4h231.3v143.9H24.1zM540.6 235.4h225.2v143.9H540.6zM290.7 235.4h211v143.9h-211z"/><path opacity=".7" fill="#777677" d="M24.1 379.3h151.2v149.9H24.1zM215.1 379.3h160.6v149.9H215.1zM416.7 379.3h164.6v149.9H416.7zM616.6 379.3h150.2v149.9H616.6z"/></svg>