<svg xmlns="http://www.w3.org/2000/svg" xmlns:xlink="http://www.w3.org/1999/xlink" width="502.6" height="324" viewBox="-108 127 502.6 324"><path fill="#ECECEC" d="M-109 127h502.6v324H-109z"/><path fill="#C7C7C7" d="M18.3 252.3h256.8V451H18.3z"/><path fill="#5A5A5B" d="M27.8 262.2h237.9V344H27.8z"/><path fill="#C7C7C7" d="M-109 142.2h502.6V242H-109z"/><path fill="#ECEBEB" d="M71.9 324.1h149.7v9.8H71.9z"/><defs><path id="a" d="M71.9 324.1h111.8v9.8H71.9z"/></defs><clipPath id="b"><use xlink:href="#a" overflow="visible"/></clipPath><g clip-path="url(#b)"><defs><path id="c" d="M82.8 274.2l38-32.7 38 32.7-38 32.6z"/></defs><clipPath id="d"><use xlink:href="#c" overflow="visible"/></clipPath><path clip-path="url(#d)" fill="#5A5A5B" d="M81.2 338.5l38.3-32.9-.9-1.1-38.3 32.9M73.6 331.9l38.3-32.8-.9-1.1-38.3 32.9M66 325.4l38.3-32.9-.9-1-38.3 32.8M77.4 335.2l38.3-32.9-.9-1-38.3 32.8M69.8 328.7l38.3-32.9-.9-1.1-38.3 32.9"/></g><g clip-path="url(#b)"><defs><path id="e" d="M120.8 306.8l38-32.6 38 32.6-38 32.7z"/></defs><clipPath id="f"><use xlink:href="#e" overflow="visible"/></clipPath><path clip-path="url(#f)" fill="#5A5A5B" d="M157.3 338.5l38.2-32.9-.9-1.1-38.3 32.9M149.7 331.9l38.2-32.8-.9-1.1-38.3 32.9M142.1 325.4l38.2-32.9-.9-1-38.3 32.8M153.5 335.2l38.2-32.9-.9-1-38.3 32.8M145.9 328.7l38.2-32.9-.9-1.1-38.3 32.9"/><path clip-path="url(#f)" fill="#5A5A5B" d="M111.6 364.6l38.3-32.9-.9-1.1-38.3 32.9M104 358.1l38.3-32.9-.9-1.1-38.3 32.9M96.4 351.5l38.3-32.8-.9-1.1-38.3 32.9M88.8 345l38.3-32.9-.9-1-38.3 32.8M107.8 361.3l38.3-32.8-.9-1.1-38.3 32.9M100.2 354.8l38.3-32.9-.9-1-38.3 32.8M92.6 348.3l38.3-32.9-.9-1.1-38.3 32.9M85 341.7l38.3-32.8-.9-1.1-38.3 32.9"/></g><g clip-path="url(#b)"><defs><path id="g" d="M158.8 339.5l38-32.7 38 32.7-38 32.6z"/></defs><clipPath id="h"><use xlink:href="#g" overflow="visible"/></clipPath><path clip-path="url(#h)" fill="#5A5A5B" d="M180.1 358.1l38.3-32.9-1-1.1-38.2 32.9M172.5 351.5l38.3-32.8-1-1.1-38.2 32.9M164.9 345l38.2-32.9-.9-1-38.3 32.8M183.9 361.3l38.3-32.8-1-1.1-38.2 32.9M176.3 354.8l38.3-32.9-1-1-38.2 32.8M161.1 341.7l38.2-32.8-.9-1.1-38.3 32.9"/></g><g clip-path="url(#b)"><defs><path id="i" d="M44.8 306.8l38-32.6 38 32.6-38 32.7z"/></defs><clipPath id="j"><use xlink:href="#i" overflow="visible"/></clipPath><path clip-path="url(#j)" fill="#5A5A5B" d="M81.2 338.5l38.3-32.9-.9-1.1-38.3 32.9M73.6 331.9l38.3-32.8-.9-1.1-38.3 32.9M66 325.4l38.3-32.9-.9-1-38.3 32.8M77.4 335.2l38.3-32.9-.9-1-38.3 32.8M69.8 328.7l38.3-32.9-.9-1.1-38.3 32.9"/><path clip-path="url(#j)" fill="#5A5A5B" d="M35.6 364.6l38.3-32.9-.9-1.1-38.3 32.9"/></g><g clip-path="url(#b)"><defs><path id="k" d="M82.8 339.5l38-32.7 38 32.7-38 32.6z"/></defs><clipPath id="l"><use xlink:href="#k" overflow="visible"/></clipPath><path clip-path="url(#l)" fill="#5A5A5B" d="M157.3 338.5l38.2-32.9-.9-1.1-38.3 32.9M149.7 331.9l38.2-32.8-.9-1.1-38.3 32.9M142.1 325.4l38.2-32.9-.9-1-38.3 32.8M153.5 335.2l38.2-32.9-.9-1-38.3 32.8M145.9 328.7l38.2-32.9-.9-1.1-38.3 32.9"/><path clip-path="url(#l)" fill="#5A5A5B" d="M111.6 364.6l38.3-32.9-.9-1.1-38.3 32.9M104 358.1l38.3-32.9-.9-1.1-38.3 32.9M96.4 351.5l38.3-32.8-.9-1.1-38.3 32.9M88.8 345l38.3-32.9-.9-1-38.3 32.8M107.8 361.3l38.3-32.8-.9-1.1-38.3 32.9M100.2 354.8l38.3-32.9-.9-1-38.3 32.8M92.6 348.3l38.3-32.9-.9-1.1-38.3 32.9M85 341.7l38.3-32.8-.9-1.1-38.3 32.9"/></g><g clip-path="url(#b)"><defs><path id="m" d="M120.8 372.1l38-32.6 38 32.6-38 32.7z"/></defs><clipPath id="n"><use xlink:href="#m" overflow="visible"/></clipPath><path clip-path="url(#n)" fill="#5A5A5B" d="M180.1 358.1l38.3-32.9-1-1.1-38.2 32.9M172.5 351.5l38.3-32.8-1-1.1-38.2 32.9M164.9 345l38.2-32.9-.9-1-38.3 32.8M183.9 361.3l38.3-32.8-1-1.1-38.2 32.9M176.3 354.8l38.3-32.9-1-1-38.2 32.8M168.7 348.3l38.2-32.9-.9-1.1-38.2 32.9M161.1 341.7l38.2-32.8-.9-1.1-38.3 32.9"/></g><g clip-path="url(#b)"><defs><path id="o" d="M6.7 339.5l38.1-32.7 38 32.7-38 32.6z"/></defs><clipPath id="p"><use xlink:href="#o" overflow="visible"/></clipPath><path clip-path="url(#p)" fill="#5A5A5B" d="M81.2 338.5l38.3-32.9-.9-1.1-38.3 32.9M73.6 331.9l38.3-32.8-.9-1.1-38.3 32.9M66 325.4l38.3-32.9-.9-1-38.3 32.8M77.4 335.2l38.3-32.9-.9-1-38.3 32.8M69.8 328.7l38.3-32.9-.9-1.1-38.3 32.9"/><path clip-path="url(#p)" fill="#5A5A5B" d="M35.6 364.6l38.3-32.9-.9-1.1-38.3 32.9"/></g><g clip-path="url(#b)"><defs><path id="q" d="M44.8 372.1l38-32.6 38 32.6-38 32.7z"/></defs><clipPath id="r"><use xlink:href="#q" overflow="visible"/></clipPath><path clip-path="url(#r)" fill="#5A5A5B" d="M111.6 364.6l38.3-32.9-.9-1.1-38.3 32.9M104 358.1l38.3-32.9-.9-1.1-38.3 32.9M96.4 351.5l38.3-32.8-.9-1.1-38.3 32.9M88.8 345l38.3-32.9-.9-1-38.3 32.8M107.8 361.3l38.3-32.8-.9-1.1-38.3 32.9M100.2 354.8l38.3-32.9-.9-1-38.3 32.8M92.6 348.3l38.3-32.9-.9-1.1-38.3 32.9M85 341.7l38.3-32.8-.9-1.1-38.3 32.9"/></g><path fill="#E0E0E0" d="M71.9 286.6h105.4v5.2H71.9zM71.9 279.1h139v5.2h-139z"/><g><g fill="#5A5A5B"><g opacity=".75"><path d="M153.6 188.3c-1.3.8-2.5 1.6-3.8 2.4-1.3.9-2.5 1.8-3.8 2.7-.3.2-.7.5-1 .7-.3.2-.6.5-1 .7-.6.5-1.3 1-1.9 1.5-2.6 2-5.1 4-7.6 6.2-2.3 2.1-4.5 4.2-6.7 6.4l.9 1.2c2.2-2.2 4.4-4.4 6.8-6.5 2.4-2.2 4.9-4.3 7.4-6.3.6-.5 1.3-1 1.9-1.5.3-.3.6-.5 1-.7.3-.2.6-.5 1-.7 1.3-.9 2.5-1.8 3.8-2.7 1.3-.9 2.5-1.7 3.7-2.5.2-.1.3-.2.4-.3l-.6-.9c-.2.1-.4.2-.5.3zM175.4 177.9c-.7.3-1.4.5-2.2.8-.4.2-.8.3-1.3.5-.4.2-.9.4-1.3.5-.9.4-1.9.8-2.9 1.2-1 .5-2.1 1-3.2 1.5-.7.3-1.3.6-1.9 1 .1.2.3.3.4.5l.2.2c.6-.3 1.2-.7 1.8-.9 1.1-.6 2.1-1.1 3.1-1.6s2-.9 2.9-1.3c.5-.2.9-.4 1.3-.6.4-.2.9-.3 1.2-.5.8-.3 1.5-.6 2.2-.9.7-.3 1.3-.5 1.8-.7-.1-.1-.1-.2-.1-.3-.8.2-1.4.4-2 .6zM121.9 215.6c.3.4.6.8.9 1.3 1.6-2 3.3-3.9 5.2-5.9l-.9-1.2c-1.9 1.9-3.6 3.8-5.2 5.8zM121.1 216.6c-.4.6-.9 1.1-1.3 1.6.4.4.7.7 1.1 1 .4-.5.7-.9 1.1-1.4l-.9-1.2zM161.9 183.6c-.3.2-.7.4-1 .5l-1.8.9s-1.2.7-1.8 1c-.6.4-1.2.7-1.9 1.1-.2.1-.3.2-.5.3l.6.9c.2-.1.3-.2.5-.3.6-.4 1.2-.8 1.8-1.1.6-.4 1.2-.8 1.8-1.1s1.2-.7 1.8-1c.4-.2.7-.4 1.1-.6 0-.1-.1-.1-.1-.2-.2 0-.3-.2-.5-.4z"/></g><g opacity=".5"><path d="M136.6 165.8c1.1 1.2 2.2 2.4 3.2 3.5-.4.5-.6 1-.7 1.6-.3 1.9 1 3.6 2.9 3.9.8.1 1.5-.1 2.2-.4 2.2 2.8 4.3 5.6 6.3 8.4.1.2.3.4.4.6.2.3.4.5.5.8.9 1.3 1.8 2.6 2.6 3.9l.6.9c2.5 3.8 4.8 7.6 6.8 11.3 3.1 5.8 5.8 11.4 7.8 16.7.1.3.2.5.3.8l.6-.6c-.1-.2-.1-.3-.2-.5-2-5.4-4.6-11.1-7.7-16.9-2-3.8-4.2-7.6-6.7-11.5l-.6-.9c-.8-1.3-1.7-2.6-2.6-3.9-.2-.3-.4-.5-.5-.8-.2-.2-.3-.4-.4-.6-2-2.9-4.1-5.7-6.3-8.5.4-.5.7-1 .8-1.7.3-1.9-1-3.6-2.9-3.9-.8-.1-1.5.1-2.2.4-1.1-1.2-2.1-2.4-3.2-3.6-1.2-1.3-2.5-2.6-3.8-3.9.3 0 .5-.1.8-.1 2.1-.3 4.2-.4 6.2-.5.5 0 1-.1 1.5-.1 1.9-.1 3.8-.1 5.7 0 4.3.1 8.3.4 12 .9.9.1 1.8.3 2.7.4.2 0 .4.1.6.1-.3-.2-.7-.4-1-.6-.8-.1-1.5-.2-2.3-.3-3.7-.5-7.8-.8-12-.9-2-.1-4.1-.1-6.3 0-.5 0-1 .1-1.5.1-1.9.1-3.8.3-5.7.5-.4.1-.8.1-1.3.2-.6-.6-1.2-1.2-1.8-1.7-.5.2-.9.4-1.4.6.5.5 1 .9 1.5 1.4-2.2.4-4.4.8-6.6 1.4-.6.4-1.1.7-1.6 1.1 2.9-.9 5.9-1.5 8.8-2 1.5 1.3 3 2.8 4.5 4.4zm3.9 5.4c.2-1.1 1.2-1.8 2.2-1.7 1.1.2 1.8 1.2 1.7 2.2-.2 1.1-1.2 1.8-2.2 1.6-1.1 0-1.8-1-1.7-2.1zM126.4 221.7c-.3-.5-.7-.9-1-1.4-.7-.9-1.4-1.9-2.1-2.9-.2-.2-.3-.4-.4-.6-.3-.4-.6-.8-.9-1.3l-.9-1.2c-.7-1.1-1.5-2.2-2.3-3.3-.1-.2-.3-.4-.4-.6-.1-.1-.1-.2-.2-.3-.6-.9-1.1-1.8-1.7-2.7-2.6-4.1-5.3-8.6-7.8-13.4.1 1.2.2 2.4.4 3.6 2.1 3.7 4.2 7.2 6.3 10.5.7 1 1.3 2 1.9 2.9.1.1.1.2.2.3s.2.2.2.3c.8 1.1 1.5 2.2 2.3 3.3.4.5.7 1 1.1 1.5.3.4.6.8.9 1.3.1.1.2.2.3.4.7 1 1.5 2 2.2 2.9.4.5.7.9 1.1 1.4l.3.3c.8.5 1.7 1 2.6 1.4l-.9-1.2c-.5-.3-.9-.7-1.2-1.2z"/></g><path d="M141.7 159.8c-.1-.1-.1-.1-.2-.1-1-1-2.1-1.9-3.1-2.8-.5.1-1 .2-1.4.3 1.1.9 2.1 1.8 3.2 2.8.5-.2 1-.2 1.5-.2zM166.3 188.9c-1.1-1.5-2.2-3.1-3.4-4.8l-.2-.2c-.1-.2-.3-.3-.4-.5-.9-1.2-1.9-2.5-2.9-3.8-.2-.3-.4-.6-.6-.8-1.6-2.1-3.4-4.2-5.3-6.4-3.3-3.9-7.1-7.9-11.4-12-.5 0-1 0-1.5.1 0 0 .1 0 .1.1 4.5 4.2 8.6 8.4 12.2 12.4 1.8 2 3.4 4 5 5.9l.3.3c.2.3.5.5.7.8 1.1 1.3 2 2.5 3 3.8.2.2.3.4.4.6 0 .1.1.1.1.2 1.3 1.7 2.5 3.3 3.6 4.8 1.1 1.6 2.1 3 3 4.3s1.7 2.5 2.3 3.5c.7 1 1.2 1.9 1.7 2.6.9 1.4 1.4 2.2 1.4 2.2s-.5-.8-1.3-2.2c-.4-.7-.9-1.6-1.6-2.7-.7-1-1.4-2.2-2.2-3.6-.9-1.6-1.9-3.1-3-4.6zM136.7 220c.2-.3.3-.6.4-.9.2-1.2-.6-2.4-1.8-2.6-.5-.1-.9 0-1.3.2-1.7-2.1-3.4-4.3-5.1-6.6l-.9-1.2c-1.1-1.5-2.1-3-3.2-4.5-.1-.1-.2-.3-.3-.4-.5-.8-1-1.5-1.5-2.3-3.7-5.6-7.3-11.6-10.4-17.9l-1.8-3.6c-.2.7-.5 1.3-.6 2 .4.8.8 1.6 1.2 2.3 3.2 6.4 6.9 12.3 10.6 18 .6.8 1.1 1.6 1.7 2.4.1.1.2.3.3.4 1.1 1.6 2.2 3.1 3.3 4.6l.9 1.2c1.7 2.2 3.4 4.3 5.1 6.4-.2.3-.4.6-.5 1-.2 1.2.6 2.4 1.8 2.6.6.1 1.1 0 1.5-.3 2.3 2.6 4.7 5 7 7.3h1.3c-2.7-2.5-5.2-5.2-7.7-8.1z"/></g><path fill="#5A5A5B" d="M144.5 156.3c19.8 0 35.9 16.1 35.9 35.9S164.3 228 144.5 228c-19.8 0-35.9-16-35.9-35.9s16.1-35.8 35.9-35.8m0-2.8c-10.3 0-20 4-27.3 11.3s-11.3 17-11.3 27.3 4 20 11.3 27.3 17 11.3 27.3 11.3 20-4 27.3-11.3c7.3-7.3 11.3-17 11.3-27.3s-4-20-11.3-27.3c-7.3-7.3-17-11.3-27.3-11.3z"/></g><path fill="#959595" d="M-109.3 127h503.2v15.2h-503.2z"/><g><circle fill="#07B5A0" cx="1.7" cy="303.1" r="19.5"/><path d="M4 310.2H1v-9.5h-3.7v-2.2c2.1.1 4-.7 4.3-2.9H4v14.6z"/></g></svg>