<svg xmlns="http://www.w3.org/2000/svg" width="502.6" height="324" viewBox="-36 0 502.6 324"><path fill="#ECECEC" d="M-36.3 0h503.2v324H-36.3z"/><path fill="#C7C7C7" d="M42.1 223.5H309v99.8H42.1z"/><path fill="#5A5A5B" d="M319.4 223.5h82.1V294h-82.1z"/><path fill="#C7C7C7" d="M27.7 25.3h373.8v33.5H27.7z"/><path fill="#E0E0E0" d="M371.2 192.7H57.6v-122h.5v121.5h313.1"/><path fill="#AEAEAE" d="M59.3 192.2c-.1 0-.2 0-.4-.1-.5-.2-.7-.8-.5-1.3l32.5-80.1 24.5 52.2 29.2-13.3 29.3-50.1 29 27 29.4-46.9 29.7 84.8c.2.5-.1 1.1-.6 1.3s-1.1-.1-1.3-.6l-28.3-80.9-28.5 45.4-29-27-28.4 48.5-31.5 14.4L91 115.6l-30.8 75.9c-.2.4-.5.7-.9.7z"/><path fill="#AEAEAE" d="M261.1 165.8c-.2 0-.3 0-.5-.1-.5-.3-.6-.9-.4-1.3l30.4-52.9 24 29.7 29.6-45.7c.3-.5.9-.6 1.4-.3s.6.9.3 1.4l-31.1 48-23.9-29.6-29 50.4c-.1.2-.5.4-.8.4z"/><path fill="#C7C7C7" d="M42.1 202.6h217.8v12.6H42.1z"/><path fill="#5A5A5B" d="M51.6 297.6h124v12.6h-124z"/><path fill="#E0E0E0" d="M327.8 240.7H393v5.2h-65.2zM327.8 233.2H393v5.2h-65.2zM327.8 248.2h57.7v5.2h-57.7zM327.8 270.8H393v5.2h-65.2zM327.8 263.3h57.7v5.2h-57.7zM327.8 278.3h26.8v5.2h-26.8z"/><path fill="#959595" d="M-36.3 0h503.2v15.2H-36.3z"/><circle fill="#07B5A0" cx="78.6" cy="271.1" r="19.5"/><path d="M80.9 278.2h-3v-9.5h-3.7v-2.2c2.1.1 4-.7 4.3-2.9h2.4v14.6z"/><g><circle fill="#07B5A0" cx="360.3" cy="196.1" r="19.5"/><path d="M355.4 194.2c-.1-3.4 1.8-5.9 5.3-5.9 2.7 0 5 1.7 5 4.6 0 4.5-4.7 4.8-6.9 7.8h6.9v2.6h-10.8c0-3.4 2.1-4.8 4.6-6.6 1.3-.9 3.1-1.8 3.1-3.6 0-1.4-.9-2.3-2.2-2.3-1.8 0-2.3 1.8-2.3 3.4h-2.7z"/></g></svg>