<svg xmlns="http://www.w3.org/2000/svg" width="502.6" height="324" viewBox="-36 0 502.6 324"><path fill="#FFF" d="M-36.3-1.8h503.2v324H-36.3z"/><path fill="#ECECEC" d="M-36.3-1.8h503.2v324H-36.3z"/><path fill="#959595" d="M-36.3-1.8h503.2v15.2H-36.3z"/><path fill="#C7C7C7" d="M42.1 221.7h82.1v99.8H42.1zM134.6 221.7h82.1v99.8h-82.1zM319.4 221.7h82.1v99.8h-82.1zM227 221.7h82.1v99.8H227zM27.7 23.5h373.8V57H27.7zM371.3 190.9H57.7v-122h.5v121.5h313.1"/><path fill="#5A5A5B" d="M59.3 190.4c-.1 0-.2 0-.4-.1-.5-.2-.7-.8-.5-1.3l32.5-80.1 24.5 52.2 29.2-13.3 29.3-50.1 29 27 29.4-46.9 29.7 84.8c.2.5-.1 1.1-.6 1.3-.5.2-1.1-.1-1.3-.6l-28.3-80.9-28.4 45.4-29-27-28.4 48.5-31.6 14.4L91 113.8l-30.8 75.9c-.1.4-.5.7-.9.7z"/><path fill="#5A5A5B" d="M261.1 164c-.2 0-.3 0-.5-.1-.5-.3-.6-.9-.4-1.3l30.4-52.9 24 29.7 29.6-45.7c.3-.5.9-.6 1.4-.3s.6.9.3 1.4l-31.1 48-23.9-29.6-29 50.4c-.1.2-.4.4-.8.4zM42.1 200.8h217.8v12.6H42.1z"/><circle fill="#07B5A0" cx="69.7" cy="69.1" r="19.5"/><path d="M72 76.2h-3v-9.5h-3.7v-2.2c2.1.1 4-.7 4.3-2.9H72v14.6z"/><g><circle fill="#07B5A0" cx="13.4" cy="207.1" r="19.5"/><path d="M8.5 205.2c-.1-3.4 1.8-5.9 5.3-5.9 2.7 0 5 1.7 5 4.6 0 4.5-4.7 4.8-6.9 7.8H19v2.6H8.2c0-3.4 2.1-4.8 4.6-6.6 1.3-.9 3.1-1.8 3.1-3.6 0-1.4-.9-2.3-2.2-2.3-1.8 0-2.3 1.8-2.3 3.4H8.5z"/></g></svg>