<svg xmlns="http://www.w3.org/2000/svg" width="502.6" height="324" viewBox="-36 0 502.6 324"><path fill="#ECECEC" d="M-36 0h502.6v324H-36z"/><path fill="#959595" d="M-36 0h502.6v15.2H-36z"/><path fill="#C7C7C7" d="M127.8 125.3h256.8V324H127.8zM-36 15.2h502.6V115H-36z"/><path fill="#5A5A5B" d="M-535.1 873.6h58.1v6.5h-58.1zM-247.1 574.1h68.4v6.5h-68.4zM-247.1 564.7h76.1v6.5h-76.1zM-103.1 410.2h74.4v6.5h-74.4zM-103.1 400.8h71.2v6.5h-71.2zM40.9 240h51.7v6.5H40.9zM40.9 230.6H117v6.5H40.9zM40.9 221.1h72.8v6.5H40.9zM40.9 204.7h51.7V215H40.9z"/><circle fill="#07B5A0" cx="60.7" cy="174.1" r="19.5"/><path d="M63 181.2h-3v-9.5h-3.7v-2.2c2.1.1 4-.7 4.3-2.9H63v14.6z"/></svg>