<svg xmlns="http://www.w3.org/2000/svg" width="502.6" height="324" viewBox="-36 0 502.6 324"><path fill="#ECECEC" d="M-35.1-1.8h503.2v324H-35.1z"/><path fill="#959595" d="M-35.1-1.8h503.2v15.2H-35.1z"/><path fill="#C7C7C7" d="M43.2 221.7h82.1v99.8H43.2zM135.6 221.7h82.1v99.8h-82.1zM320.5 221.7h82.1v99.8h-82.1zM228.2 221.7h82.1v99.8h-82.1zM28.9 23.5h373.8V57H28.9z"/><path fill="#959595" d="M372.4 190.9H58.7v-122h.5v121.5h313.2"/><path fill="#959595" d="M60.4 190.4c-.1 0-.2 0-.4-.1-.5-.2-.7-.8-.5-1.3L92 108.9l24.5 52.2 29.2-13.3L175 97.7l29 27 29.4-46.9 29.7 84.8c.2.5-.1 1.1-.6 1.3-.5.2-1.1-.1-1.3-.6l-28.3-80.9-28.5 45.4-29-27-28.4 48.5-31.5 14.4-23.4-49.9-30.8 75.9c-.1.4-.5.7-.9.7z"/><path fill="#959595" d="M262.2 164c-.2 0-.3 0-.5-.1-.5-.3-.6-.9-.4-1.3l30.4-52.9 24 29.7 29.6-45.7c.3-.5.9-.6 1.4-.3s.6.9.3 1.4l-31.1 48-23.8-29.7-29 50.4c-.1.3-.5.5-.9.5z"/><path fill="#5A5A5B" d="M43.2 200.8H261v12.6H43.2z"/><circle fill="#07B5A0" cx="16" cy="207.1" r="19.5"/><path d="M18.3 214.2h-3v-9.5h-3.7v-2.2c2.1.1 4-.7 4.3-2.9h2.4v14.6z"/></svg>