<svg xmlns="http://www.w3.org/2000/svg" width="502.6" height="324" viewBox="-36 0 502.6 324"><path fill="#ECECEC" d="M-36-1.8h502.6v324H-36z"/><path fill="#C7C7C7" d="M127.8 123.5h256.8v198.7H127.8zM25.8 123.5H118v179.2H25.8zM-36 13.4h502.6v99.8H-36z"/><path fill="#5A5A5B" d="M46.3 45.5h102.1v12.6H46.3zM163.6 45.5h221v30.4h-221zM46.3 63.3h71.8v12.6H46.3zM137.1 138.1h169.7v12.6H137.1zM137.1 177.4h129.7v34.7H137.1zM137.1 218.7h129.7v34.7H137.1zM137.1 259.9h129.7v34.7H137.1z"/><path fill="#E0E0E0" d="M146.7 187.1h96.4v5.2h-96.4zM146.7 194.6h57.2v5.2h-57.2zM146.7 228.4h96.4v5.2h-96.4zM146.7 235.9h57.2v5.2h-57.2zM146.7 269.6h96.4v5.2h-96.4zM146.7 277.1h57.2v5.2h-57.2z"/><path fill="#959595" d="M-36.3-1.8h503.2v15.2H-36.3z"/><circle fill="#07B5A0" cx="19.9" cy="60.7" r="19.5"/><path d="M22.2 67.8h-3v-9.5h-3.7v-2.2c2.1.1 4-.7 4.3-2.9h2.4v14.6z"/><circle fill="#07B5A0" cx="110.8" cy="144.4" r="19.5"/><path d="M105.9 142.5c-.1-3.4 1.8-5.9 5.3-5.9 2.7 0 5 1.7 5 4.6 0 4.5-4.7 4.8-6.9 7.8h7.1v2.6h-10.8c0-3.4 2.1-4.8 4.6-6.6 1.3-.9 3.1-1.8 3.1-3.6 0-1.4-.9-2.3-2.2-2.3-1.8 0-2.3 1.8-2.3 3.4h-2.9z"/><g><circle fill="#07B5A0" cx="201.9" cy="236.1" r="19.5"/><path d="M200.2 238.6c0 .6.1 1.1.3 1.5.3.7 1 1.1 1.9 1.1.6 0 1.1-.2 1.5-.6.4-.4.6-.9.6-1.7 0-1-.4-1.6-1.2-1.9-.4-.2-1.1-.3-2.1-.3v-2.1c.9 0 1.6-.1 2-.3.6-.3 1-.9 1-1.7 0-.6-.2-1-.5-1.4-.3-.3-.8-.5-1.4-.5-.7 0-1.2.2-1.5.6-.3.4-.5 1-.5 1.7h-2.7c0-.7.2-1.4.4-2.1.2-.6.6-1.1 1.1-1.6.4-.3.8-.6 1.3-.8.5-.2 1.2-.3 1.9-.3 1.4 0 2.5.4 3.4 1.1s1.3 1.7 1.3 2.9c0 .9-.3 1.6-.8 2.2-.3.4-.7.6-1 .8.3 0 .6.2 1.1.7.7.7 1.1 1.6 1.1 2.8s-.4 2.3-1.3 3.3c-.9.9-2.1 1.4-3.8 1.4-2.1 0-3.5-.7-4.3-2-.4-.7-.7-1.7-.7-2.8h2.9z"/></g></svg>