<svg xmlns="http://www.w3.org/2000/svg" width="502.6" height="324" viewBox="-36 0 502.6 324"><path fill="#ECECEC" d="M-36.4.2h503.5v324H-36.4z"/><path fill="#959595" d="M-36.4.2h503.5v15.2H-36.4z"/><path fill="#C7C7C7" d="M-29 25.8h92.4v153.7H-29zM-29 189.7h92.4v83.1H-29zM73.2 25.8h287.4v298.4H73.2zM370.5 25.8h87.6v58.3h-87.6zM370.5 94.3h87.6v58.3h-87.6zM370.5 162.8h87.6v58.3h-87.6z"/><path fill="#5A5A5B" d="M82.7 35.7h199.7v25.7H82.7z"/><g fill="#F9F9F9"><path d="M95.9 42.7l1.8 10h-1l-.5-3.1h-4.5l-1.8 3.1h-1l6.1-10h.9zm.2 6l-.9-5.3-3.1 5.3h4zM99.8 51.2c.1.2.3.4.5.6.2.1.4.2.7.3.2.1.5.1.7.1s.4 0 .6-.1.4-.1.6-.2c.2-.1.3-.2.4-.4.1-.2.2-.4.2-.6 0-.2-.1-.4-.2-.6-.1-.2-.3-.3-.4-.4l-.6-.3s-.5-.2-.7-.3-.5-.2-.7-.3-.4-.2-.6-.4-.3-.3-.4-.5c-.1-.2-.2-.5-.2-.8 0-.4.1-.7.3-.9.2-.2.4-.5.6-.6.3-.2.6-.3.9-.4.3-.1.6-.1.9-.1.4 0 .7 0 1 .1s.6.2.8.4.4.4.5.7c.1.3.2.7.2 1.1h-.9c0-.3 0-.5-.1-.7-.1-.2-.2-.4-.4-.5-.2-.1-.3-.2-.6-.3-.3-.1-.4-.1-.7-.1-.2 0-.4 0-.6.1s-.4.1-.6.2c-.2.1-.3.2-.4.4-.1.2-.2.4-.2.6 0 .2 0 .3.1.4l.3.3s.3.2.5.3l.6.3c.3.1.5.2.8.3s.5.2.8.4c.2.2.4.3.6.6.2.2.2.5.2.8 0 .4-.1.8-.3 1-.2.3-.4.5-.7.7-.3.2-.6.3-.9.4-.3.1-.7.1-1 .1-.4 0-.7 0-1-.1s-.6-.2-.9-.4-.5-.5-.6-.8c-.1-.3-.2-.7-.2-1.2h.9c0 .3.2.6.2.8zM108.2 42.7l-1.3 6.3 4.2-3.5h1.2l-3.4 2.7 2.2 4.4h-1l-1.9-3.9-1.5 1.3-.6 2.6h-.9l2.1-10 .9.1zM117.8 42.7l.5 8.9 4.3-8.9h1.1l.7 8.8 4.1-8.8h1l-4.8 10h-1l-.7-9.1-4.4 9.1h-1l-.7-10h.9zM129.2 46.5c.2-.3.4-.5.7-.7s.6-.3.9-.4c.3-.1.7-.1 1.1-.1.2 0 .5 0 .8.1.3 0 .6.1.8.3.3.1.5.3.6.5s.3.5.3.8v.6c0 .2-.1.4-.1.7 0 .2-.1.4-.1.6-.1.2-.1.4-.1.6-.1.4-.2.7-.2 1-.1.3-.1.5-.1.7s-.1.3-.1.4v.3s.1.2.2.2h.7l-.1.7c-.2 0-.5.1-.7.1-.5 0-.8-.3-.8-.8v-.2-.2c-.3.4-.6.7-1.1 1-.5.2-.9.3-1.4.3-.3 0-.6 0-.9-.1-.3-.1-.5-.2-.7-.3-.2-.2-.4-.4-.5-.6-.1-.3-.2-.6-.2-.9 0-.4.1-.7.2-1 .1-.3.3-.5.6-.6s.5-.3.8-.4c.3-.1.6-.2.9-.2.5-.1.9-.1 1.3-.1s.7 0 1-.1.5-.2.7-.4c.1-.2.2-.5.2-1 0-.2 0-.4-.1-.5s-.2-.2-.4-.3c-.1-.1-.3-.1-.5-.2h-.5c-.3 0-.5 0-.8.1s-.5.1-.7.3c-.2.1-.4.3-.5.5s-.2.5-.3.8h-.9c-.1-.8-.1-1.2 0-1.5zm3.9 2.3c-.1.1-.2.2-.3.2-.1.1-.3.1-.4.1-.1 0-.3 0-.5.1h-.4c-.3 0-.6 0-.9.1-.3 0-.6.1-.9.2-.3.1-.5.3-.7.5s-.3.5-.3.9c0 .2 0 .4.1.6.1.2.2.3.4.4.2.1.3.2.5.2s.4.1.6.1c.7 0 1.3-.2 1.7-.6.4-.4.7-.9.9-1.5l.2-1.3zM137.1 45.4l.5-2.2h.9l-.5 2.2h1.4l-.1.7h-1.5l-1 4.6c0 .2-.1.3-.1.4v.3s0 .2.1.4c.1.1.2.2.4.2.3 0 .7 0 1-.1l-.2.8h-1.3s-.3-.1-.4-.1l-.3-.3s-.1-.3-.1-.5v-.3s0-.3.1-.4l1-4.8h-1.3l.2-.7h1.2v-.2zM140.4 51.2c.1.2.3.4.5.6.2.1.4.2.7.3.2.1.5.1.7.1s.4 0 .6-.1c.2-.1.4-.1.6-.2.2-.1.3-.2.4-.4.1-.2.2-.4.2-.6 0-.2-.1-.4-.2-.6-.1-.2-.3-.3-.4-.4l-.6-.3c-.2-.1-.5-.2-.7-.3s-.5-.2-.7-.3-.4-.2-.6-.4c-.2-.2-.3-.3-.4-.5s-.2-.5-.2-.8c0-.4.1-.7.3-.9s.4-.5.6-.6c.3-.2.6-.3.9-.4.3-.1.6-.1.9-.1.4 0 .7 0 1 .1s.6.2.8.4.4.4.5.7.2.7.2 1.1h-.9c0-.3 0-.5-.1-.7s-.2-.4-.4-.5-.3-.2-.6-.3-.4-.1-.7-.1c-.2 0-.4 0-.6.1s-.4.1-.6.2c-.2.1-.3.2-.4.4-.1.2-.2.4-.2.6 0 .2 0 .3.1.4l.3.3s.3.2.5.3l.6.3c.3.1.5.2.8.3s.5.2.8.4c.2.2.4.3.6.6.2.2.2.5.2.8 0 .4-.1.8-.3 1-.2.3-.4.5-.7.7s-.6.3-.9.4c-.3.1-.7.1-1 .1-.4 0-.7 0-1-.1s-.6-.2-.9-.4-.5-.5-.6-.8-.2-.7-.2-1.2h.9c.1.3.1.6.2.8zM151.6 45.4c.4.1.7.3.9.6.3.2.4.5.6.9.1.3.2.7.2 1.2 0 .6-.1 1.2-.3 1.8s-.4 1.1-.7 1.5-.7.8-1.2 1.1-1.1.4-1.8.4c-.9 0-1.6-.3-2.1-.8s-.7-1.3-.7-2.2c0-.6.1-1.2.3-1.7.2-.6.4-1.1.8-1.5.3-.4.8-.8 1.3-1 .5-.3 1.1-.4 1.7-.4.2-.1.5 0 1 .1zm-.8 6.4c.4-.2.7-.6.9-.9.2-.3.4-.8.6-1.3.1-.5.2-.9.2-1.3 0-.7-.2-1.2-.5-1.6-.4-.4-.9-.6-1.6-.6-.5 0-.9.1-1.3.4-.4.2-.7.5-.9.9-.3.4-.4.8-.6 1.2-.1.5-.2.9-.2 1.3 0 .7.2 1.3.5 1.7.4.4.9.7 1.6.7.3-.2.8-.3 1.3-.5zM156.1 45.4l-.3 1.3c.3-.4.6-.8 1.1-1.1s.9-.4 1.5-.4c.3 0 .6 0 .9.1s.5.2.7.3c.2.2.3.4.5.6.2.2.2.5.2.9 0 .2 0 .5-.1.9l-1 4.6h-.9l1-4.7c0-.1.1-.2.1-.4v-.4s0-.4-.1-.6c-.1-.2-.2-.3-.3-.4-.1-.1-.3-.2-.5-.2s-.4-.1-.6-.1c-.3 0-.6.1-.9.2-.3.1-.6.3-.8.6-.3.3-.5.6-.7.9-.2.4-.3.8-.4 1.2l-.8 3.7h-1l1.5-7.2h.9v.2zM166.6 46.5c.2-.3.4-.5.7-.7s.6-.3.9-.4c.3-.1.7-.1 1.1-.1.2 0 .5 0 .8.1.3 0 .6.1.8.3.3.1.5.3.6.5s.3.5.3.8v.6c0 .2-.1.4-.1.7 0 .2-.1.4-.1.6-.1.2-.1.4-.1.6-.1.4-.2.7-.2 1-.1.3-.1.5-.1.7s-.1.3-.1.4v.3s.1.2.2.2h.7l-.1.7c-.2 0-.5.1-.7.1-.5 0-.8-.3-.8-.8v-.2-.2c-.3.4-.6.7-1.1 1-.5.2-.9.3-1.4.3-.3 0-.6 0-.9-.1s-.5-.2-.7-.3c-.2-.2-.4-.4-.5-.6-.1-.3-.2-.6-.2-.9 0-.4.1-.7.2-1 .1-.3.3-.5.6-.6s.5-.3.8-.4c.3-.1.6-.2.9-.2.5-.1.9-.1 1.3-.1s.7 0 1-.1.5-.2.7-.4c.1-.2.2-.5.2-1 0-.2 0-.4-.1-.5s-.2-.2-.4-.3c-.1-.1-.3-.1-.5-.2h-.5c-.3 0-.5 0-.8.1s-.5.1-.7.3c-.2.1-.4.3-.5.5s-.2.5-.3.8h-.9c-.3-.8-.3-1.2 0-1.5zm4 2.3c-.1.1-.2.2-.3.2-.1.1-.3.1-.4.1-.1 0-.3 0-.5.1h-.4c-.3 0-.6 0-.9.1-.3 0-.6.1-.9.2-.3.1-.5.3-.7.5s-.3.5-.3.9c0 .2 0 .4.1.6.1.2.2.3.4.4.2.1.3.2.5.2s.4.1.6.1c.7 0 1.3-.2 1.7-.6.4-.4.7-.9.9-1.5l.2-1.3zM181.3 55.3l.9-3.9c-.3.4-.6.8-1 1.1s-.9.4-1.5.4c-.5 0-.9-.1-1.2-.2-.3-.1-.6-.4-.9-.6-.2-.3-.4-.6-.5-1s-.2-.8-.2-1.2c0-.6.1-1.1.3-1.7.2-.6.4-1 .7-1.5.3-.4.7-.8 1.2-1.1s1-.4 1.6-.4 1.1.1 1.6.4c.4.3.7.7.9 1.2l.3-1.4h.8l-2.1 9.9h-.9zm-2-9c-.4.2-.7.6-1 .9-.3.4-.5.8-.6 1.3s-.2.9-.2 1.4c0 .7.2 1.2.5 1.6.3.4.9.6 1.6.6.5 0 .9-.1 1.3-.4.4-.3.7-.6.9-1s.4-.8.6-1.3c.1-.5.2-.9.2-1.3 0-.3 0-.6-.1-.9-.1-.3-.2-.5-.4-.7s-.4-.4-.6-.5c-.2-.1-.5-.2-.9-.2-.3.2-.8.3-1.3.5zM189.3 52.7l.3-1.3c-.3.4-.6.8-1.1 1.1s-1 .4-1.5.4c-.3 0-.6 0-.9-.1s-.5-.2-.7-.3c-.2-.2-.3-.4-.5-.6-.1-.2-.2-.5-.2-.9 0-.2 0-.5.1-.9l1-4.6h.9l-1 4.7c0 .1-.1.2-.1.4v.4s0 .4.1.6.2.3.3.4.3.2.5.2.4.1.6.1c.3 0 .6-.1.9-.2.3-.1.6-.3.8-.6s.5-.6.7-.9c.2-.4.3-.8.4-1.2l.8-3.7h.9l-1.6 7.2h-.7v-.2zM193.1 49.8c0 .3 0 .6.1.9.1.3.2.5.4.7s.4.4.7.5.6.2.9.2c.6 0 1.1-.2 1.5-.5s.7-.8.9-1.3h.9c-.2.8-.6 1.4-1.2 1.9-.5.4-1.2.6-2.1.6-1 0-1.7-.3-2.2-.8s-.7-1.3-.7-2.2c0-.6.1-1.1.3-1.7s.4-1 .8-1.5.7-.8 1.2-1c.5-.3 1-.4 1.7-.4.4 0 .8.1 1.2.2.3.1.6.3.9.6.2.2.4.5.5.9.1.3.2.7.2 1.1v.6c0 .2 0 .4-.1.6h-5.7c-.2.3-.2.4-.2.6zm4.8-1.5V48c0-.6-.2-1.1-.5-1.5-.4-.4-.8-.5-1.4-.5-.4 0-.7.1-1 .2-.3.1-.6.3-.8.6-.2.2-.4.5-.6.8-.2.3-.3.6-.3 1h4.7c-.1-.2-.1-.3-.1-.3zM200.3 51.2c.1.2.3.4.5.6.2.1.4.2.7.3.2.1.5.1.7.1s.4 0 .6-.1c.2-.1.4-.1.6-.2.2-.1.3-.2.4-.4.1-.2.2-.4.2-.6 0-.2-.1-.4-.2-.6-.1-.2-.3-.3-.4-.4l-.6-.3c-.2-.1-.5-.2-.7-.3s-.5-.2-.7-.3-.4-.2-.6-.4-.3-.3-.4-.5c-.1-.2-.2-.5-.2-.8 0-.4.1-.7.3-.9s.4-.5.6-.6c.3-.2.6-.3.9-.4.3-.1.6-.1.9-.1.4 0 .7 0 1 .1s.6.2.8.4.4.4.5.7.2.7.2 1.1h-.9c0-.3 0-.5-.1-.7s-.2-.4-.4-.5-.3-.2-.6-.3-.4-.1-.7-.1c-.2 0-.4 0-.6.1-.2.1-.4.1-.6.2-.2.1-.3.2-.4.4-.1.2-.2.4-.2.6 0 .2 0 .3.1.4l.3.3s.3.2.5.3l.6.3c.3.1.5.2.8.3s.5.2.8.4c.2.2.4.3.6.6.2.2.2.5.2.8 0 .4-.1.8-.3 1-.2.3-.4.5-.7.7s-.6.3-.9.4c-.3.1-.7.1-1 .1-.4 0-.7 0-1-.1s-.6-.2-.9-.4-.5-.5-.6-.8-.2-.7-.2-1.2h.9c0 .3.2.6.2.8zM207.9 45.4l.5-2.2h.9l-.5 2.2h1.4l-.1.7h-1.5l-1 4.6c0 .2-.1.3-.1.4v.3s0 .2.1.4c.1.1.2.2.4.2.3 0 .7 0 1-.1l-.2.8h-1.3s-.3-.1-.4-.1l-.3-.3s-.1-.3-.1-.5v-.3s0-.3.1-.4l1-4.8h-1.3l.2-.7h1.2v-.2zM212.4 45.4l-1.6 7.2h-.9l1.5-7.2h1zm.7-2.7l-.3 1.4h-.9l.3-1.4h.9zM218.1 45.4c.4.1.7.3.9.6.3.2.4.5.6.9.1.3.2.7.2 1.2 0 .6-.1 1.2-.3 1.8s-.4 1.1-.7 1.5-.7.8-1.2 1.1-1.1.4-1.8.4c-.9 0-1.6-.3-2.1-.8s-.7-1.3-.7-2.2c0-.6.1-1.2.3-1.7.2-.6.4-1.1.8-1.5.3-.4.8-.8 1.3-1 .5-.3 1.1-.4 1.7-.4.3-.1.7 0 1 .1zm-.8 6.4c.4-.2.7-.6.9-.9s.4-.8.6-1.3c.1-.5.2-.9.2-1.3 0-.7-.2-1.2-.5-1.6-.4-.4-.9-.6-1.6-.6-.5 0-.9.1-1.3.4-.4.2-.7.5-.9.9-.3.4-.4.8-.6 1.2-.1.5-.2.9-.2 1.3 0 .7.2 1.3.5 1.7.4.4.9.7 1.6.7.4-.2.9-.3 1.3-.5zM222.8 45.4l-.3 1.3c.3-.4.6-.8 1.1-1.1s.9-.4 1.5-.4c.3 0 .6 0 .9.1.3.1.5.2.7.3.2.2.3.4.5.6.2.2.2.5.2.9 0 .2 0 .5-.1.9l-1 4.6h-.9l1-4.7c0-.1.1-.2.1-.4v-.4s0-.4-.1-.6c-.1-.2-.2-.3-.3-.4-.1-.1-.3-.2-.5-.2s-.4-.1-.6-.1c-.3 0-.6.1-.9.2-.3.1-.6.3-.8.6-.3.3-.5.6-.7.9-.2.4-.3.8-.4 1.2l-.8 3.7h-.9l1.5-7.2h.8v.2z"/></g><path fill="#F9F9F9" d="M82.7 84.1h199.7v25.7H82.7z"/><g fill="#231F20"><path d="M91.9 91l.5 8.9 4.3-8.9h1.1l.7 8.8 4.1-8.8h1l-4.8 10h-1l-.7-9.1-4.4 9.1h-1L91 91h.9zM103.2 94.9c.2-.3.4-.5.7-.7.3-.2.6-.3.9-.4s.7-.1 1.1-.1c.2 0 .5 0 .8.1.3 0 .6.1.8.3.3.1.5.3.6.5.1.2.3.5.3.8v.6s-.1.4-.1.7c0 .2-.1.4-.1.6-.1.2-.1.4-.1.6-.1.4-.2.7-.2 1-.1.3-.1.5-.1.7s-.1.3-.1.4v.3s.1.2.2.2h.7l-.1.7c-.2 0-.5.1-.7.1-.5 0-.8-.3-.8-.8v-.2-.2c-.3.4-.6.7-1.1 1-.5.2-.9.3-1.4.3-.3 0-.6 0-.9-.1s-.5-.2-.7-.3c-.2-.2-.4-.4-.5-.6-.1-.3-.2-.6-.2-.9 0-.4.1-.7.2-1 .1-.3.3-.5.6-.6s.5-.3.8-.4.6-.2.9-.2c.5-.1.9-.1 1.3-.1s.7 0 1-.1.5-.2.7-.4c.1-.2.2-.5.2-1 0-.2 0-.4-.1-.5-.1-.1-.2-.2-.4-.3-.1-.1-.3-.1-.5-.2h-.5c-.3 0-.5 0-.8.1s-.5.1-.7.3c-.2.1-.4.3-.5.5-.1.2-.2.5-.3.8h-.9c-.3-.9-.1-1.2 0-1.5zm4 2.2c-.1.1-.2.2-.3.2-.1.1-.3.1-.4.1-.1 0-.3 0-.5.1h-.4c-.3 0-.6 0-.9.1-.3 0-.6.1-.9.2s-.5.3-.7.5-.3.5-.3.9c0 .2 0 .4.1.6.1.2.2.3.4.4.2.1.3.2.5.2s.4.1.6.1c.7 0 1.3-.2 1.7-.6s.7-.9.9-1.5l.2-1.3zM111.2 93.8l.5-2.2h.9l-.5 2.2h1.4l-.1.7h-1.5l-1 4.6c0 .2-.1.3-.1.4v.3s0 .2.1.4c.1.1.2.2.4.2.3 0 .7 0 1-.1l-.2.8h-1.3s-.3-.1-.4-.1l-.3-.3c-.1-.1-.1-.3-.1-.5v-.3s0-.3.1-.4l1-4.8h-1.4l.2-.7h1.3v-.2zM114.6 99.5c.1.2.3.4.5.6.2.1.4.2.7.3.2.1.5.1.7.1s.4 0 .6-.1.4-.1.6-.2.3-.2.4-.4c.1-.2.2-.4.2-.6s-.1-.4-.2-.6c-.1-.2-.3-.3-.4-.4l-.6-.3c-.2-.1-.5-.2-.7-.3s-.5-.2-.7-.3c-.2-.1-.4-.2-.6-.4-.2-.2-.3-.3-.4-.5-.1-.2-.2-.5-.2-.8 0-.4.1-.7.3-.9.2-.2.4-.5.6-.6.3-.2.6-.3.9-.4s.6-.1.9-.1c.4 0 .7 0 1 .1s.6.2.8.4c.2.2.4.4.5.7.1.3.2.7.2 1.1h-.9c0-.3 0-.5-.1-.7-.1-.2-.2-.4-.4-.5-.2-.1-.3-.2-.6-.3-.3-.1-.4-.1-.7-.1-.2 0-.4 0-.6.1s-.4.1-.6.2-.3.2-.4.4c-.1.2-.2.4-.2.6s0 .3.1.4l.3.3c.1.1.3.2.5.3l.6.3c.3.1.5.2.8.3.3.1.5.2.8.4.2.2.4.3.6.6.2.2.2.5.2.8 0 .4-.1.8-.3 1-.2.3-.4.5-.7.7-.3.2-.6.3-.9.4s-.7.1-1 .1c-.4 0-.7 0-1-.1s-.6-.2-.9-.4c-.3-.2-.5-.5-.6-.8-.1-.3-.2-.7-.2-1.2h.9c0 .3 0 .6.2.8zM125.6 93.8c.4.1.7.3.9.6.3.2.4.5.6.9.1.3.2.7.2 1.2 0 .6-.1 1.2-.3 1.8-.2.6-.4 1.1-.7 1.5-.3.4-.7.8-1.2 1.1s-1.1.4-1.8.4c-.9 0-1.6-.3-2.1-.8s-.7-1.3-.7-2.2c0-.6.1-1.2.3-1.7.2-.6.4-1.1.8-1.5.3-.4.8-.8 1.3-1 .5-.3 1.1-.4 1.7-.4.3-.1.6-.1 1 .1zm-.8 6.3c.4-.2.7-.6.9-.9.2-.3.4-.8.6-1.3.1-.5.2-.9.2-1.3 0-.7-.2-1.2-.5-1.6-.4-.4-.9-.6-1.6-.6-.5 0-.9.1-1.3.4-.4.2-.7.5-.9.9-.3.4-.4.8-.6 1.2-.1.5-.2.9-.2 1.3 0 .7.2 1.3.5 1.7.4.4.9.7 1.6.7.4-.1.9-.2 1.3-.5zM130.1 93.8l-.3 1.3c.3-.4.6-.8 1.1-1.1s.9-.4 1.5-.4c.3 0 .6 0 .9.1s.5.2.7.3c.2.2.3.4.5.6s.2.5.2.9c0 .2 0 .5-.1.9l-1 4.6h-.9l1-4.7c0-.1.1-.2.1-.4v-.4s0-.4-.1-.6-.2-.3-.3-.4-.3-.2-.5-.2-.4-.1-.6-.1c-.3 0-.6.1-.9.2-.3.1-.6.3-.8.6-.3.3-.5.6-.7.9-.2.4-.3.8-.4 1.2l-.8 3.7h-.9l1.5-7.2h.8v.2zM141.6 93.8l-.4 1.7c.3-.5.6-.9 1-1.3.4-.3.9-.5 1.6-.5h.4l-.2.9h-.6c-.4 0-.7.1-1 .2s-.6.3-.8.6c-.2.2-.4.5-.6.8-.2.3-.3.6-.3 1l-.8 3.8h-.9l1.5-7.2h1.1zM144.8 98.2c0 .3 0 .6.1.9s.2.5.4.7.4.4.7.5.6.2.9.2c.6 0 1.1-.2 1.5-.5s.7-.8.9-1.3h.9c-.2.8-.6 1.4-1.2 1.9-.5.4-1.2.6-2.1.6-1 0-1.7-.3-2.2-.8s-.7-1.3-.7-2.2c0-.6.1-1.1.3-1.7s.4-1 .8-1.5.7-.8 1.2-1c.5-.3 1-.4 1.7-.4.4 0 .8.1 1.2.2.3.1.6.3.9.6.2.2.4.5.5.9.1.3.2.7.2 1.1v.6s0 .4-.1.6H145c-.2.2-.2.4-.2.6zm4.8-1.6v-.3c0-.6-.2-1.1-.5-1.5-.4-.4-.8-.5-1.4-.5-.4 0-.7.1-1 .2s-.6.3-.8.6c-.2.2-.4.5-.6.8-.2.3-.3.6-.3 1h4.7c-.1-.1-.1-.2-.1-.3zM156.8 95.3c-.1-.2-.2-.4-.4-.5s-.3-.3-.6-.3c-.2-.1-.5-.1-.7-.1-.5 0-1 .1-1.4.4-.4.2-.7.5-1 .9s-.5.8-.6 1.3-.2.9-.2 1.4c0 .3 0 .6.1.9s.2.5.4.7.4.4.6.5c.3.1.6.2.9.2.6 0 1.1-.2 1.5-.5s.7-.8.9-1.3h.9c-.3.8-.7 1.5-1.2 1.9-.6.4-1.3.6-2.1.6-.9 0-1.6-.3-2.1-.8s-.7-1.3-.7-2.2c0-.6.1-1.1.3-1.7s.4-1.1.8-1.5c.3-.4.7-.8 1.2-1.1s1-.4 1.7-.4c.4 0 .8 0 1.1.1s.6.2.9.5c.2.2.4.5.6.8.1.3.2.7.2 1.1h-1c-.1-.4-.1-.7-.1-.9zM163.4 93.8c.4.1.7.3.9.6.3.2.4.5.6.9.1.3.2.7.2 1.2 0 .6-.1 1.2-.3 1.8s-.4 1.1-.7 1.5-.7.8-1.2 1.1-1.1.4-1.8.4c-.9 0-1.6-.3-2.1-.8s-.7-1.3-.7-2.2c0-.6.1-1.2.3-1.7.2-.6.4-1.1.8-1.5.3-.4.8-.8 1.3-1 .5-.3 1.1-.4 1.7-.4.4-.1.7-.1 1 .1zm-.6 6.3c.4-.2.7-.6.9-.9s.4-.8.6-1.3c.1-.5.2-.9.2-1.3 0-.7-.2-1.2-.5-1.6-.4-.4-.9-.6-1.6-.6-.5 0-.9.1-1.3.4-.4.2-.7.5-.9.9-.3.4-.4.8-.6 1.2-.1.5-.2.9-.2 1.3 0 .7.2 1.3.5 1.7.4.4.9.7 1.6.7.3-.1.8-.2 1.3-.5zM168.1 93.8l-.3 1.3c.3-.4.6-.8 1.1-1.1.4-.3.9-.4 1.5-.4.5 0 .9.1 1.2.4s.5.6.5 1.2c.3-.4.6-.8 1.1-1.1.4-.3.9-.4 1.5-.4.7 0 1.2.2 1.5.5.3.4.5.8.5 1.4v.4s0 .3-.1.4l-1 4.7h-.9l1-4.7c.1-.3.1-.5.1-.7 0-.4-.1-.6-.3-.9-.2-.2-.6-.4-1-.4s-.7.1-1 .3-.5.4-.7.7-.4.7-.5 1.1-.3.8-.4 1.3l-.7 3.3h-.9l1-4.7c.1-.2.1-.5.1-.7 0-.4-.1-.7-.3-.9-.2-.3-.5-.4-.9-.4-.3 0-.6.1-.9.2-.3.2-.6.4-.8.6-.2.3-.4.6-.6 1s-.3.8-.4 1.2l-.8 3.7h-.9l1.5-7.2h.8v-.1zM179.8 93.8l-.3 1.3c.3-.4.6-.8 1.1-1.1.4-.3.9-.4 1.5-.4.5 0 .9.1 1.2.4s.5.6.5 1.2c.3-.4.6-.8 1.1-1.1.4-.3.9-.4 1.5-.4.7 0 1.2.2 1.5.5.3.4.5.8.5 1.4v.4s0 .3-.1.4l-1 4.7h-.9l1-4.7c.1-.3.1-.5.1-.7 0-.4-.1-.6-.3-.9-.2-.2-.6-.4-1-.4s-.7.1-1 .3-.5.4-.7.7-.4.7-.5 1.1-.3.8-.4 1.3l-.7 3.3h-1l1-4.7c.1-.2.1-.5.1-.7 0-.4-.1-.7-.3-.9-.2-.3-.5-.4-.9-.4-.3 0-.6.1-.9.2-.3.2-.6.4-.8.6-.2.3-.4.6-.6 1s-.3.8-.4 1.2l-.8 3.7h-.9l1.5-7.2h.8l.1-.1zM190.3 98.2c0 .3 0 .6.1.9s.2.5.4.7.4.4.7.5.6.2.9.2c.6 0 1.1-.2 1.5-.5s.7-.8.9-1.3h.9c-.2.8-.6 1.4-1.2 1.9-.5.4-1.2.6-2.1.6-1 0-1.7-.3-2.2-.8s-.7-1.3-.7-2.2c0-.6.1-1.1.3-1.7s.4-1 .8-1.5.7-.8 1.2-1c.5-.3 1-.4 1.7-.4.4 0 .8.1 1.2.2.3.1.6.3.9.6.2.2.4.5.5.9.1.3.2.7.2 1.1v.6s0 .4-.1.6h-5.7c-.2.2-.2.4-.2.6zm4.8-1.6v-.3c0-.6-.2-1.1-.5-1.5-.4-.4-.8-.5-1.4-.5-.4 0-.7.1-1 .2s-.6.3-.8.6c-.2.2-.4.5-.6.8s-.3.6-.3 1h4.7c-.1-.1-.1-.2-.1-.3zM198.8 93.8l-.3 1.3c.3-.4.6-.8 1.1-1.1s.9-.4 1.5-.4c.3 0 .6 0 .9.1s.5.2.7.3c.2.2.3.4.5.6s.2.5.2.9c0 .2 0 .5-.1.9l-1 4.6h-.9l1-4.7c0-.1.1-.2.1-.4v-.4s0-.4-.1-.6-.2-.3-.3-.4-.3-.2-.5-.2-.4-.1-.6-.1c-.3 0-.6.1-.9.2-.3.1-.6.3-.8.6-.3.3-.5.6-.7.9-.2.4-.3.8-.4 1.2l-.8 3.7h-.9l1.5-7.2h.8v.2zM209.3 101l.3-1.3c-.3.5-.7.8-1.1 1.1s-.9.4-1.6.4c-.9 0-1.6-.3-2.1-.8s-.7-1.2-.7-2.1c0-.6.1-1.1.3-1.7s.4-1.1.8-1.5c.3-.4.8-.8 1.2-1.1.5-.3 1-.4 1.6-.4s1.1.1 1.5.4.7.6.9 1.2l.9-4.1h.9l-2.1 10-.8-.1zm-1-.9c.4-.3.7-.6 1-1s.5-.8.6-1.3.2-.9.2-1.4c0-.6-.2-1.2-.5-1.5-.4-.4-.8-.6-1.5-.6-.5 0-1 .1-1.3.4-.4.3-.7.6-1 1s-.5.8-.6 1.3-.2.9-.2 1.4c0 .6.2 1.1.5 1.5s.8.6 1.5.6c.6 0 .9-.1 1.3-.4zM213.1 99.5c.1.2.3.4.5.6.2.1.4.2.7.3.2.1.5.1.7.1s.4 0 .6-.1c.2-.1.4-.1.6-.2.2-.1.3-.2.4-.4.1-.2.2-.4.2-.6s-.1-.4-.2-.6c-.1-.2-.3-.3-.4-.4l-.6-.3c-.2-.1-.5-.2-.7-.3-.2-.1-.5-.2-.7-.3-.2-.1-.4-.2-.6-.4s-.3-.3-.4-.5c-.1-.2-.2-.5-.2-.8 0-.4.1-.7.3-.9.2-.2.4-.5.6-.6.3-.2.6-.3.9-.4.3-.1.6-.1.9-.1.4 0 .7 0 1 .1s.6.2.8.4.4.4.5.7.2.7.2 1.1h-.9c0-.3 0-.5-.1-.7s-.2-.4-.4-.5-.3-.2-.6-.3-.4-.1-.7-.1c-.2 0-.4 0-.6.1-.2.1-.4.1-.6.2-.2.1-.3.2-.4.4-.1.2-.2.4-.2.6s0 .3.1.4l.3.3c.1.1.3.2.5.3l.6.3c.3.1.5.2.8.3.3.1.5.2.8.4.2.2.4.3.6.6.2.2.2.5.2.8 0 .4-.1.8-.3 1-.2.3-.4.5-.7.7s-.6.3-.9.4c-.3.1-.7.1-1 .1-.4 0-.7 0-1-.1s-.6-.2-.9-.4-.5-.5-.6-.8-.2-.7-.2-1.2h.9c-.1.3 0 .6.2.8zM219.3 99.5h1.2l-.3 1.5H219l.3-1.5zM223.3 99.5h1.2l-.3 1.5h-1.3l.4-1.5zM227.1 99.5h1.2l-.3 1.5h-1.2l.3-1.5z"/></g><path fill="#F9F9F9" d="M221.6 179.2h129.7v34.7H221.6zM221.6 217.8h129.7v9.5H221.6zM82.7 179.2h129.7v34.7H82.7zM82.7 217.8h129.7v9.5H82.7zM221.6 120.9h129.7v34.7H221.6zM221.6 159.4h129.7v9.5H221.6z"/><path fill="#5A5A5B" d="M82.7 120.9h129.7v34.7H82.7z"/><path fill="#F9F9F9" d="M221.6 236.4h129.7v34.7H221.6zM221.6 275h129.7v9.5H221.6zM82.7 236.4h129.7v34.7H82.7zM82.7 275h129.7v9.5H82.7z"/><path fill="#5A5A5B" d="M82.7 159.4h129.7v9.5H82.7z"/><circle fill="#07B5A0" cx="55.7" cy="47.1" r="19.5"/><path d="M58 54.2h-3v-9.5h-3.7v-2.2c2.1.1 4-.7 4.3-2.9H58v14.6z"/><circle fill="#07B5A0" cx="55.4" cy="149.1" r="19.5"/><path d="M50.5 147.2c-.1-3.4 1.8-5.9 5.3-5.9 2.7 0 5 1.7 5 4.6 0 4.5-4.7 4.8-6.9 7.8H61v2.6H50.2c0-3.4 2.1-4.8 4.6-6.6 1.3-.9 3.1-1.8 3.1-3.6 0-1.4-.9-2.3-2.2-2.3-1.8 0-2.3 1.8-2.3 3.4h-2.9z"/><g><circle fill="#07B5A0" cx="414.4" cy="90.1" r="19.5"/><path d="M412.6 92.6c0 .6.1 1.1.3 1.5.3.7 1 1.1 1.9 1.1.6 0 1.1-.2 1.5-.6s.6-.9.6-1.7c0-1-.4-1.6-1.2-1.9-.4-.2-1.1-.3-2.1-.3v-2.1c.9 0 1.6-.1 2-.3.6-.3 1-.9 1-1.7 0-.6-.2-1-.5-1.4-.3-.3-.8-.5-1.4-.5-.7 0-1.2.2-1.5.6s-.5 1-.5 1.7H410c0-.7.2-1.4.4-2.1.2-.6.6-1.1 1.1-1.6.4-.3.8-.6 1.3-.8s1.2-.3 1.9-.3c1.4 0 2.5.4 3.4 1.1s1.3 1.7 1.3 2.9c0 .9-.3 1.6-.8 2.2-.3.4-.7.6-1 .8.3 0 .6.2 1.1.7.7.7 1.1 1.6 1.1 2.8 0 1.2-.4 2.3-1.3 3.3-.9.9-2.1 1.4-3.8 1.4-2.1 0-3.5-.7-4.3-2-.4-.7-.7-1.7-.7-2.8h2.9z"/></g></svg>