<svg xmlns="http://www.w3.org/2000/svg" width="502.6" height="324" viewBox="-36 0 502.6 324"><path fill="#ECECEC" d="M-35.5 15.2h502.6V324H-35.5z"/><path fill="#C7C7C7" d="M128.3 125.3h256.8v179.2H128.3zM26.3 125.3h92.2v179.2H26.3z"/><path fill="#E0E0E0" d="M-35.5 15.2h502.6V115H-35.5z"/><path fill="#5A5A5B" d="M26.3 28.7H196v12.6H26.3zM302 55.1h83v47.2h-83zM210.3 55.1h83v47.2h-83zM118.5 55.1h83v47.2h-83zM26.3 55.1h83v47.2h-83z"/><path fill="#959595" d="M-36.5 0h503.2v15.2H-36.5z"/><circle fill="#07B5A0" cx="113.5" cy="41.3" r="19.5"/><path d="M115.8 48.4h-3v-9.5h-3.7v-2.2c2.1.1 4-.7 4.3-2.9h2.4v14.6z"/></svg>