<svg xmlns="http://www.w3.org/2000/svg" width="341.1" height="300" viewBox="-188 139 341.1 300"><path fill="#ECECEC" d="M-188 139h341.1v300H-188V139z"/><path fill="#F9F9F9" d="M-147.8 231.4h300.9v71.2h-300.9v-71.2z"/><path fill="#D74108" d="M-147.8 320.8H50.7v53.7h-198.5v-53.7z"/><g fill="#F9F9F9"><path d="M-98.5 339.8h2.8l5.7 14.8h-2.8l-1.4-3.9h-5.9l-1.4 3.9h-2.7l5.7-14.8zm-.9 8.9h4.5l-2.2-6.3h-.1l-2.2 6.3zM-87 351.1c.1 1.4 1.2 1.9 2.4 1.9.9 0 2.4-.2 2.4-1.4-.1-1.2-1.8-1.4-3.5-1.8-1.7-.4-3.4-1-3.4-3.2 0-2.3 2.5-3.1 4.5-3.1 2.2 0 4.2.9 4.5 3.3h-2.5c-.2-1.1-1.1-1.4-2.2-1.4-.7 0-1.9.2-1.9 1.1 0 1.2 1.7 1.3 3.5 1.7 1.7.4 3.5 1 3.5 3.1 0 2.5-2.6 3.5-4.8 3.5-2.7 0-4.7-1.2-4.7-3.7h2.2zM-78.1 339.8h2.4v8.4l4.3-4.3h2.9l-4.1 3.9 4.5 6.8H-71l-3.3-5.2-1.4 1.4v3.8h-2.4v-14.8zM-63.8 339.8h2.6l2.7 11.3 3-11.3h2.6l2.9 11.3 2.8-11.3h2.6l-4.1 14.8h-2.6l-3-11.3-3 11.3H-60l-3.8-14.8zM-35.5 352.2c0 .6.1.8.6.8h.5v1.6c-.4.1-1.1.3-1.5.3-1 0-1.6-.3-1.8-1.3-.9.9-2.4 1.3-3.7 1.3-1.9 0-3.7-1-3.7-3.1 0-2.7 2.1-3.1 4.1-3.3 1.7-.3 3.2-.1 3.2-1.5 0-1.2-1.3-1.4-2.2-1.4-1.3 0-2.3.5-2.4 1.7h-2.4c.2-2.8 2.5-3.6 4.9-3.6 2.1 0 4.3.8 4.3 3.1v5.4zm-2.3-3c-.7.5-1.8.5-2.9.6-1 .2-1.9.5-1.9 1.8 0 1.1 1.3 1.4 2.2 1.4 1 0 2.6-.5 2.6-2v-1.8zM-34.2 343.9h1.8v-3.2h2.4v3.2h2.1v1.8H-30v5.7c0 1 .1 1.5 1.1 1.5.3 0 .7 0 1-.1v1.8c-.5.1-1 .1-1.5.1-2.5 0-2.9-1-3-2.7v-6.3h-1.8v-1.8zM-24.4 351.1c.1 1.4 1.2 1.9 2.4 1.9.9 0 2.4-.2 2.4-1.4-.1-1.2-1.8-1.4-3.5-1.8-1.7-.4-3.4-1-3.4-3.2 0-2.3 2.5-3.1 4.5-3.1 2.2 0 4.2.9 4.5 3.3H-20c-.2-1.1-1.1-1.4-2.2-1.4-.7 0-1.9.2-1.9 1.1 0 1.2 1.7 1.3 3.5 1.7 1.7.4 3.5 1 3.5 3.1 0 2.5-2.6 3.5-4.8 3.5-2.7 0-4.7-1.2-4.7-3.7h2.2zM-16.3 349.2c0-3.2 2-5.6 5.4-5.6 3.4 0 5.4 2.4 5.4 5.6 0 3.3-2 5.6-5.4 5.6-3.4.1-5.4-2.3-5.4-5.6zm8.4 0c0-1.8-.9-3.8-3-3.8s-3 1.9-3 3.8.9 3.8 3 3.8 3-1.9 3-3.8zM-3.9 343.9h2.2v1.6c.7-1.2 1.9-1.9 3.3-1.9 2.3 0 3.8 1.2 3.8 3.6v7.3H3.1v-6.7c-.1-1.7-.7-2.4-2.1-2.4-1.6 0-2.6 1.2-2.6 2.8v6.3H-4v-10.6z"/></g><g fill="#D74108"><path d="M-102.1 258.6h11.5l-.2 1.2h-5.1l-3 13.6h-1.4l3-13.6h-5.1l.3-1.2z"/><path d="M-94.4 276.1c.4 0 .7.1 1.1.1.8 0 1.3-.6 1.7-1.2l1-1.7-2-10.7h1.4l1.5 9.1 4.9-9.1h1.4l-7.6 13.2c-.6 1-1.4 1.4-2.6 1.4-.4 0-.7-.1-1.1-.1l.3-1zM-81.7 262.7h1.2l-.4 1.9c.9-1.4 2-2.2 3.9-2.2 2.7 0 4.1 1.8 4.1 4.4 0 3.3-2.3 6.9-5.8 6.9-1.7 0-3.1-.7-3.4-2.4l-1.3 6.1h-1.3l3-14.7zm-.1 6.8c0 1.9 1.1 3.1 3 3.1 3 0 4.5-3.3 4.5-5.9 0-1.8-.9-3.2-2.9-3.2-2.9 0-4.6 3.3-4.6 6zM-70 268.4c0 .2-.1.5-.1.8 0 1.9 1 3.4 3.1 3.4 1.7 0 3-1.1 3.5-2.6h1.3c-.7 2.4-2.3 3.7-4.9 3.7-2.8 0-4.3-1.7-4.3-4.5 0-3.4 2.1-6.8 5.8-6.8 2.6 0 4.1 1.7 4.1 4.2 0 .6 0 1.2-.1 1.8H-70zm7.1-1.1v-.8c0-1.8-1.1-3-2.9-3-2.1 0-3.6 1.8-4.1 3.8h7zM-56.5 276.1c.4 0 .7.1 1.1.1.8 0 1.3-.6 1.7-1.2l1-1.7-2-10.7h1.4l1.5 9.1 4.9-9.1h1.4l-7.6 13.2c-.6 1-1.4 1.4-2.6 1.4-.4 0-.7-.1-1.1-.1l.3-1zM-35.7 266.5c0 3.6-2 7.1-5.9 7.1-2.7 0-4.3-1.8-4.3-4.4 0-3.5 2.1-6.8 6-6.8 2.5 0 4.2 1.5 4.2 4.1zm-1.3.3c0-2-1.1-3.3-3.1-3.3-2.9 0-4.4 3.1-4.4 5.6 0 2.1 1 3.5 3.2 3.5 2.8-.1 4.3-3.3 4.3-5.8zM-26.3 273.3h-1.2l.4-1.9c-.8 1.3-2.2 2.3-3.8 2.3-1.9 0-3.2-.8-3.2-2.9 0-.3.1-.7.2-1.3l1.5-6.8h1.3l-1.5 6.9c-.1.3-.1.7-.1 1.1 0 1.4 1.1 1.9 2.2 1.9 1.9 0 3.6-1.7 4.2-4.4l1.2-5.5h1.3l-2.5 10.6zM-21.2 262.7h1.2l-.5 2.5c.8-1.5 2-2.6 3.9-2.6h.8l-.3 1.3h-.7c-2.3.1-3.6 1.9-4 3.9l-1.2 5.6h-1.3l2.1-10.7zM-3.3 277.3h-1.3l1.3-5.8c-.8 1.3-2.1 2.2-3.7 2.2-2.7 0-4.1-1.9-4.1-4.4 0-3.2 2-6.8 5.6-6.8 1.8 0 3.2 1 3.7 2.4l.5-2.1h1.2l-3.2 14.5zm-6.6-8.1c0 2 .9 3.3 3.1 3.3 2.9 0 4.4-3.5 4.4-5.9 0-1.8-.9-3.2-2.9-3.2-3 .1-4.6 3.2-4.6 5.8zM8.7 273.3H7.5l.4-1.9c-.8 1.3-2.2 2.3-3.8 2.3-1.9 0-3.2-.8-3.2-2.9 0-.3.1-.7.2-1.3l1.5-6.8h1.3l-1.5 6.9c-.1.3-.1.7-.1 1.1 0 1.4 1.1 1.9 2.2 1.9 1.9 0 3.6-1.7 4.2-4.4l1.2-5.5H11l-2.3 10.6zM13.5 268.4c0 .2-.1.5-.1.8 0 1.9 1 3.4 3.1 3.4 1.7 0 3-1.1 3.5-2.6h1.3c-.7 2.4-2.3 3.7-4.9 3.7-2.8 0-4.3-1.7-4.3-4.5 0-3.4 2.1-6.8 5.8-6.8 2.6 0 4.1 1.7 4.1 4.2 0 .6 0 1.2-.1 1.8h-8.4zm7.1-1.1v-.8c0-1.8-1.1-3-2.9-3-2.1 0-3.6 1.8-4.1 3.8h7zM24.4 269.9c0 2.1 1.5 2.7 3 2.7 1.2 0 2.7-.6 2.7-2s-1.5-1.8-2.9-2.4c-1.4-.5-2.9-1.2-2.9-3 0-2.1 2.2-2.9 3.9-2.9 2.2 0 3.9 1 3.8 3.4h-1.3c.1-1.6-1.1-2.3-2.5-2.3-1.1 0-2.6.4-2.6 1.8 0 1 1.1 1.5 2.3 2 1.5.6 3.5 1.2 3.5 3.1 0 2.4-2.3 3.3-4.3 3.3-2.1 0-4.1-1.1-4-3.8h1.3zM33.7 262.7h1.9l.7-3.2h1.3l-.7 3.2H39l-.2 1.1h-2.2l-1.5 6.8c-.1.5-.1.7-.1 1 0 .4.2.7.7.7s1 0 1.5-.1l-.2 1.1c-.4.1-.9.1-1.3.1-1 0-2-.3-2-1.5 0-.2 0-.6.1-1.1l1.5-7.1h-1.9l.3-1zM41.4 262.7h1.3l-2.3 10.7h-1.3l2.3-10.7zm.9-4.1h1.3l-.5 2.1h-1.3l.5-2.1zM54 266.5c0 3.6-2 7.1-5.9 7.1-2.8 0-4.3-1.8-4.3-4.4 0-3.5 2.1-6.8 6-6.8 2.4 0 4.2 1.5 4.2 4.1zm-1.3.3c0-2-1.1-3.3-3.1-3.3-2.9 0-4.4 3.1-4.4 5.6 0 2.1 1 3.5 3.2 3.5 2.8-.1 4.3-3.3 4.3-5.8zM57.4 262.7h1.2l-.4 1.9c.8-1.3 2.2-2.3 3.8-2.3 1.9 0 3.2.8 3.2 2.9 0 .3-.1.7-.2 1.3l-1.5 6.8h-1.3l1.5-6.9c.1-.3.1-.7.1-1.1 0-1.4-1.1-1.9-2.2-1.9-1.9 0-3.6 1.7-4.2 4.4l-1.2 5.5h-1.3l2.5-10.6zM74.5 258.6h1.3l-1.3 6c.7-1.3 2.1-2.3 3.7-2.3 1.9 0 3.2.8 3.2 2.9 0 .3-.1.7-.2 1.3l-1.5 6.8h-1.3l1.5-6.9c.1-.3.1-.7.1-1.1 0-1.4-1.1-1.9-2.2-1.9-1.9 0-3.6 1.7-4.2 4.4l-1.2 5.5h-1.3l3.4-14.7zM84.5 268.4c0 .2-.1.5-.1.8 0 1.9 1 3.4 3.1 3.4 1.7 0 3-1.1 3.5-2.6h1.3c-.7 2.4-2.3 3.7-4.9 3.7-2.8 0-4.3-1.7-4.3-4.5 0-3.4 2.1-6.8 5.8-6.8 2.6 0 4.1 1.7 4.1 4.2 0 .6 0 1.2-.1 1.8h-8.4zm7.1-1.1v-.8c0-1.8-1.1-3-2.9-3-2.1 0-3.6 1.8-4.1 3.8h7zM96.3 262.7h1.2l-.5 2.5c.8-1.5 2-2.6 3.9-2.6h.8l-.3 1.3h-.7c-2.3.1-3.6 1.9-4 3.9l-1.2 5.6H94l2.3-10.7zM102.5 268.4c0 .2-.1.5-.1.8 0 1.9 1 3.4 3.1 3.4 1.7 0 3-1.1 3.5-2.6h1.3c-.7 2.4-2.3 3.7-4.9 3.7-2.8 0-4.3-1.7-4.3-4.5 0-3.4 2.1-6.8 5.8-6.8 2.6 0 4.1 1.7 4.1 4.2 0 .6 0 1.2-.1 1.8h-8.4zm7.1-1.1v-.8c0-1.8-1.1-3-2.9-3-2.1 0-3.6 1.8-4.1 3.8h7z"/></g><g fill="#AEAEAE"><path d="M-88 180.6h-6v2h2v6h-2v2h8v-2h-2"/><circle cx="-90" cy="176.6" r="2"/><path d="M-90 168.6c-7.7 0-14 6.3-14 14s6.3 14 14 14 14-6.3 14-14-6.3-14-14-14zm0 26c-6.6 0-12-5.4-12-12s5.4-12 12-12 12 5.4 12 12c0 6.7-5.4 12-12 12z"/></g><g fill="#AEAEAE"><path d="M-136.8 168.6c-6.1 0-11 4.9-11 11s4.9 11 11 11 11-4.9 11-11c0-6-4.9-11-11-11zm0 20c-5 0-9-4-9-9s4-9 9-9 9 4 9 9-4 9-9 9zM-127.662 191.608l2.97-2.97 7 7-2.97 2.97z"/><circle cx="-127.8" cy="188.6" r="1"/></g></svg>