<svg xmlns="http://www.w3.org/2000/svg" width="807.1" height="792.1" viewBox="0 0 807.1 792.1"><g fill="#E0E0E0"><path d="M403.9 468.8c1.8-20.5 2.9-40.9 3.3-61.2.1-5.1.2-10.1.2-15.1v-7.4c0-2.5-.1-5-.1-7.5-.2-9.9-.5-19.7-.7-29.3-.6-9.6-1.2-19-1.8-28.3-.1-1-.2-2-.2-3.1-2.3.1-4.6.2-6.9.4.1 1.1.2 2.1.2 3.2.4 9.2.9 18.5 1.3 28 .1 9.5.2 19.2.3 29 0 2.4.1 4.9 0 7.3 0 2.5-.1 5-.1 7.5-.1 5-.2 10-.4 15-.7 20-2 40.3-4.1 60.5-1.9 19.6-4.5 39.1-7.8 58.2 3.1 0 6.2 0 9.3-.1 3.1-18.6 5.6-37.8 7.5-57.1zM367.9 153c1.4 4.6 3.7 11.2 6.2 19.8 1.1 4.3 2.4 9.1 3.8 14.3.7 2.6 1.4 5.3 2.1 8.1.7 2.8 1.2 5.8 1.9 8.8 1.3 6.1 2.6 12.5 4.1 19.3 1.2 6.9 2.4 14.1 3.7 21.6.8 4 1.4 8.2 1.9 12.5h5.4c-.7-4.6-1.5-9-2.4-13.3-1.5-7.5-2.9-14.8-4.3-21.6-1.7-6.8-3.3-13.2-4.8-19.3-.8-3-1.4-6-2.3-8.8-.8-2.8-1.7-5.5-2.5-8.1-1.6-5.2-3-9.9-4.3-14.2-1.3-4.3-2.8-8-4-11.2-1.2-3.3-2.2-6-3.1-8.3-1.7-4.5-2.6-6.9-2.6-6.9-.1-.3-.4-.4-.7-.3-.3.1-.4.4-.3.7 0-.1.8 2.4 2.2 6.9zM395 533.7c-3.1 0-6.2 0-9.3-.1-3 16.3-6.4 32.2-10.4 47.6 3.2-.1 6.3-.1 9.6-.2 3.8-15.3 7.2-31.2 10.1-47.3zM286.4 753.4c.8-.4 1.5-.9 2.3-1.4 3-2 6.5-4.2 10-7.2 7.2-5.7 15.2-13.5 23.2-23.4 8-9.9 16-21.8 23.4-35.4 14.7-27 27.8-60.4 37.6-97.3-3.3 0-6.5 0-9.6.1-4.6 17.1-9.7 33.4-15.4 48.7-6.1 16.3-12.7 31.3-19.8 44.7-7.1 13.3-14.5 25-22 34.7-7.4 9.7-14.9 17.3-21.6 22.8-3.3 2.9-6.5 5-9.2 7-.6.4-1.2.8-1.8 1.1-.3-.3-.5-.6-.8-.9-5.5-5.5-14.4-5.5-19.9 0-5.5 5.5-5.5 14.4 0 19.9 5.5 5.5 14.4 5.5 19.9 0 3.7-3.6 4.9-8.7 3.7-13.4zM392.9 268.5c.5 4.1 1 8.2 1.6 12.4.6 4.2.8 8.5 1.2 12.9.4 4.4.7 8.8 1.1 13.2.1 1.1.2 2.3.3 3.5 2.2-.1 4.5-.3 6.7-.4-.1-1.2-.3-2.4-.4-3.6-.5-4.5-1-8.9-1.5-13.3s-.8-8.7-1.5-12.9c-.6-4.2-1.3-8.4-1.9-12.5-.4-2.3-.7-4.6-1-6.8-1.5 0-3-.1-4.4-.1H392c.3 2.4.6 5 .9 7.6zM96.2 611.2c-2.5-2.5-5.8-3.9-9.1-4.1-.7-2.6-1.4-5.6-2.3-9-1.7-7-3.7-15.5-5.6-25.3-2-9.8-3.9-21-5.6-33.2-1.6-12.2-3.1-25.5-4-39.6-.5-9.1-.9-18.6-1-28.3v-2c0-4.7 0-9.4.1-14.1.4-15.4 1.3-31.3 3.2-47.4l.7-6 .3-1.9.4-2.8.2-1.4c.6-4 1.1-8.1 1.8-12.1.7-4.1 1.5-8.1 2.2-12.2.7-4.1 1.7-8 2.6-12.1l1.3-6 1.5-6c1-4 2-8 3.1-11.9 2.3-7.9 4.4-15.8 7-23.5 3.5-11.1 7.3-21.9 11.2-32.4.4 3.5.8 6.9 1.3 10.2.7 4 1.4 7.7 2.1 11.3.7 3.5 1.3 6.8 1.8 9.9.7 3 1.4 5.8 2 8.3.2.8.4 1.6.5 2.3-1.5.7-2.8 1.6-4 2.8-5.5 5.5-5.6 14.4-.1 20 5.5 5.5 14.4 5.6 20 .1 5.5-5.5 5.6-14.4.1-20-2.7-2.7-6.2-4.1-9.8-4.2-.1-.7-.3-1.5-.4-2.3-.5-2.5-1-5.3-1.5-8.3-.4-3-.9-6.3-1.3-9.8-.5-3.5-1-7.2-1.5-11.2-.5-3.9-.8-8.1-1.2-12.4l-.6-6.6c-.2-2.2-.4-4.5-.5-6.9v-1c2.1-5.4 4.3-10.8 6.5-15.9 2.8-6.9 5.7-13.6 8.6-20.1 5.7-13 11.2-25.3 16.4-36.5 10.4-22.5 19.4-41.2 25.7-54.2 3-6.1 5.3-11 7-14.5-.1 0-.1.1-.2.1l-7.1 14.2c-6.5 13-15.8 31.4-26.6 53.8-5.4 11.2-11.2 23.3-17.1 36.3-3 6.5-6 13.1-8.9 20-1.5 3.4-3 6.8-4.4 10.3-.1-2.2-.2-4.5-.3-6.8-.2-2.5-.1-5 0-7.5 0-2.5.1-5.1.1-7.7.1-2.6 0-5.2.2-7.9.2-2.6.4-5.3.6-8l.6-8.1c.4-2.7.8-5.4 1.1-8.2.4-2.8.8-5.5 1.2-8.3.5-2.7 1.1-5.5 1.6-8.3.5-2.5 1-5.1 1.6-7.6.1-.2.1-.5.2-.7.7-2.7 1.5-5.5 2.2-8.3.7-2.7 1.5-5.4 2.4-8.1.9-2.7 1.9-5.5 2.8-8.2.1-.5.3-.9.5-1.3.8-2.3 1.7-4.5 2.6-6.7 1.1-2.6 2.2-5.3 3.3-7.9 1.3-2.6 2.5-5.1 3.8-7.6l1.9-3.8 2.1-3.7c1.4-2.4 2.8-4.9 4.3-7.3 1.6-2.3 3.1-4.6 4.6-6.9.8-1.1 1.5-2.3 2.3-3.4.8-1.1 1.7-2.2 2.5-3.3 1.7-2.2 3.3-4.3 5-6.4 6.9-8.2 14.1-15.8 21.5-22.4 7.5-6.5 14.8-12.4 22.1-17.2 7.2-4.8 14.1-9 20.3-12.3 6.3-3.3 11.9-5.9 16.6-7.9 3.4-1.4 6.4-2.6 8.7-3.4 4.1-1.5 6.4-2.1 6.4-2.1s-1.4.2-4.1.9c-.4.1-.9.2-1.3.3-2.6.6-6 1.5-10.2 2.9-4.9 1.6-10.8 3.8-17.3 6.7-6.6 2.8-13.9 6.5-21.5 11-7.7 4.5-15.6 10-23.6 16.4-7.9 6.4-15.8 13.9-23.2 22.3-1.8 2.1-3.6 4.3-5.4 6.5l-2.7 3.3c-.3.4-.6.9-.9 1.3-.5.7-1 1.5-1.6 2.2-.8 1.1-1.5 2.2-2.3 3.2-.9 1.3-1.8 2.6-2.7 3.8-1.5 2.5-3.1 5-4.6 7.5l-2.3 3.8-2.1 3.9c-1.4 2.6-2.8 5.3-4.1 7.9-1.2 2.7-2.4 5.4-3.6 8.2-1.2 2.7-2.5 5.4-3.4 8.3-1.7 4.8-3.5 9.5-4.9 14.4-.3.9-.5 1.7-.7 2.6-.5 1.9-1.1 3.9-1.6 5.8-.3.9-.5 1.8-.8 2.8l-.3 1.5c-.5 2.4-1 4.8-1.5 7.1-.6 2.9-1.2 5.7-1.8 8.6-.3 2-.5 4-.8 6-.1.9-.2 1.7-.3 2.6-.4 2.8-.8 5.7-1.1 8.5l-.6 8.4c-.2 2.8-.4 5.5-.6 8.3-.2 2.7-.1 5.4-.1 8.1v7.9c0 2.6-.1 5.2.2 7.7.3 5.1.6 10 .9 14.8.1 2.4.4 4.7.7 7l.3 2.7c-4.9 12.2-9.6 24.8-13.9 37.8-2.7 7.7-5 15.6-7.4 23.5l-3.3 12-1.6 6-1.4 6.1c-.9 4.1-2 8.1-2.8 12.2-.8 4.1-1.6 8.1-2.4 12.1-.8 4.1-1.4 8.2-2.1 12.3l-1 6.1v.1l-.3 2.6-.4 3.4c-2.3 16.2-3.4 32.3-4.1 47.9-.2 3.9-.3 7.8-.4 11.6v1.8c-.1 10.8.1 21.4.5 31.5.6 14.3 1.9 27.8 3.3 40.2 1.4 11.5 3 22 4.7 31.4 2.2.2 4.4 1.1 6.1 2.8 3.8 3.8 3.8 10 0 13.8-.8.8-1.7 1.3-2.6 1.8.7 3.5 1.4 6.8 2.1 9.7.8 3.4 1.5 6.5 2.1 9.2-.8.5-1.6 1.1-2.3 1.8-5.5 5.5-5.5 14.4 0 19.9 5.5 5.5 14.4 5.5 19.9 0 5.1-5.4 5.1-14.4-.4-19.9zM633.4 716.2c8.8-8.6 16.6-18.3 24-28.5 1.2-1.6 2.4-3.3 3.6-5l5.4-8.4c6.1-9.7 11.9-19.9 16.9-30.4 3.3-6.3 6.2-12.9 9.2-19.5 4.5-2.1 8.9-4.3 13.3-6.4 4.5-2.4 8.9-5 13.3-7.4 1-.6 1.9-1.2 2.8-1.9 2.2-1.4 4.3-2.8 6.5-4.2.9-.6 1.9-1.2 2.8-1.8 1.8-1.3 3.6-2.6 5.3-3.9.1-.1.3-.2.4-.3 5.8-4.5 10.9-9.4 15.4-14.6 5.9-6.8 10.5-14 13.7-21.2 3.3-7.1 4.9-14.2 5.7-20.5.5-3.1.5-6.1.5-8.8 0-2.7-.4-5.2-.5-7.4-.3-2.2-.7-4.2-1-5.9-.2-1.1-.5-2-.7-2.9-.1-.5-.3-.9-.4-1.4-.6-2.3-1-3.5-1-3.5s.2 1.3.6 3.6c.1.7.3 1.5.4 2.4.1.6.2 1.2.2 1.9.1 1.7.3 3.7.4 5.8 0 4.4-.1 9.7-1.4 15.7-1.2 5.9-3.3 12.4-6.8 18.9-3.5 6.5-8.3 13-14.1 19.1-3 3.1-6.4 6.2-10 9-2.4 1.9-5 3.8-7.6 5.5-1 .7-2 1.4-3 2-4.1 2.4-8.2 4.9-12.4 7.4-4.2 2.2-8.5 4.4-12.8 6.7-1.5.7-2.9 1.3-4.4 2l2.1-5 2.1-5.4c5.7-14.3 10.5-29.1 14.7-44.1 3-10.8 5.5-21.7 7.6-32.8.7-3.8 1.4-7.7 2.1-11.5l.3-1.5 1.5-11.6c.2-1.9.5-3.9.7-5.8l.5-5.8c.3-3.8.7-7.6.8-11.5v-.2l.3-10 .1-1.7c0-15.6-.5-31.2-2.9-46.4l-.6-4.6c1.2-.5 2.4-1.3 3.4-2.3 4.2-4.2 4.2-10.9 0-15.1-2-2-4.7-3.1-7.4-3.1-.7-2.9-1.4-5.8-2.2-8.6l-1.4-5.5c-.5-1.8-1.1-3.6-1.6-5.4l-3.3-10.8c-1.2-3.6-2.5-7-3.8-10.5 0-.1-.1-.2-.1-.3-1.3-3.9-2.8-7.6-4.4-11.4-1.2-3-2.5-5.9-3.7-8.9-1.4-3.4-3-6.6-4.6-9.9-1.6-3.3-3.1-6.5-4.7-9.8-1-1.8-1.9-3.6-2.9-5.5-.7-1.3-1.4-2.7-2.1-4-1.1-2.1-2.2-4.1-3.4-6.2-.6-1-1.2-2.1-1.8-3.1-3.6-6.1-7-12.1-10.8-17.9-1.9-2.9-3.7-5.8-5.5-8.6-1.9-2.8-3.8-5.6-5.7-8.3-15.3-22-31.4-41.6-47.1-58.9-15.7-17.3-30.9-32.4-44.8-45.3-6.9-6.4-13.4-12.5-19.6-17.9-6.2-5.4-11.8-10.5-17.1-14.7-5.2-4.4-9.9-8.2-14-11.6-4.1-3.3-7.7-6.1-10.5-8.3-5.7-4.5-8.8-6.9-8.8-6.9-.5-.4-1.1-.3-1.5.2-.4.4-.3 1.1.2 1.5 0 0 3 2.4 8.7 7 2.8 2.3 6.3 5.1 10.5 8.4 4 3.4 8.7 7.3 13.8 11.7 5.2 4.3 10.8 9.4 16.9 14.8 6.2 5.4 12.6 11.5 19.5 18 13.7 13 28.8 28.1 44.3 45.4 15.5 17.3 31.4 36.9 46.4 58.9 1.9 2.7 3.8 5.5 5.6 8.3 1.8 2.9 3.6 5.7 5.4 8.6 3.6 5.5 6.8 11.3 10.2 17 .1.2.3.5.4.7 1.8 3 3.4 6.1 5 9.2v.1c1.6 3.1 3.2 6.2 4.9 9.3 1.6 3.2 3 6.4 4.6 9.7 1.5 3.3 3.1 6.5 4.4 9.9.7 1.7 1.4 3.5 2.2 5.2 1.5 3.7 3 7.4 4.4 11.2.5 1.3 1 2.6 1.4 4 1.2 3.5 2.5 6.9 3.7 10.4 1.1 3.5 2.1 7.1 3.2 10.6.5 1.8 1.1 3.5 1.6 5.3l1.3 5.5c.7 2.8 1.4 5.7 2.1 8.5-1.1.5-2.2 1.2-3.1 2.1-4.2 4.2-4.2 10.9 0 15.1 1.9 1.9 4.4 2.9 6.9 3.1l.6 4.5c2.2 15 2.7 30.3 2.5 45.6l-.2 4.4-.3 7.1c0 1-.1 2-.2 3-.2 2.8-.5 5.7-.7 8.5l-.5 5.7c-.2 1.9-.5 3.8-.7 5.7l-1.6 11.5c-.3 1.9-.7 3.8-1 5.7-.7 3.8-1.4 7.6-2.2 11.4-2 9.4-4.2 18.8-6.8 28-4.3 14.7-9.1 29.3-14.8 43.4l-2.1 5.3-2.2 5.2c-.9 2-1.8 4.1-2.6 6.1-.2.1-.3.2-.5.2-4.6 1.8-9.2 3.8-13.9 5.5-4.7 1.7-9.4 3.5-14.1 5-4.8 1.5-9.5 3.1-14.2 4.5-1.2.3-2.4.7-3.7 1.1-2 .6-3.9 1.1-5.9 1.7-1.5.4-3 .9-4.6 1.3-2.3.6-4.7 1.3-7 1.9-1.2.3-2.3.6-3.5.9l-.2.1h-.1c-.2 0 .1 0 0 0l-.4.1-.9.2-1.7.4c-4.6 1.1-9.2 2.1-13.7 3.1s-8.8 2.2-13 2.8c-4.2.7-8.4 1.5-12.3 2.2-3.1.5-6 1.1-8.9 1.6-.7-1.5-1.6-2.9-2.8-4.1-5.5-5.5-14.4-5.5-19.9 0-2.2 2.2-3.6 5.1-4 8-4.6.6-8.7 1.1-12.2 1.5-2.6.3-4.8.6-6.7.9-.4-.7-.8-1.4-1.4-2-3.1-3.1-8-3.1-11.1 0s-3.1 8 0 11.1c3.1 3.1 8 3.1 11.1 0 1-1 1.6-2.1 1.9-3.3 1.9-.1 4.1-.2 6.7-.4 3.5-.3 7.7-.4 12.4-.8.7 1.8 1.7 3.5 3.2 4.9 5.5 5.5 14.4 5.5 19.9 0 2.2-2.2 3.5-4.8 3.9-7.6 6.9-.9 14.2-2.1 22-3.3 4.4-.6 8.7-1.7 13.2-2.6 4.5-1 9-2 13.7-3l1.7-.4.9-.2.4-.1.6-.2c1.2-.3 2.3-.6 3.5-.9 1.8-.5 3.6-1 5.5-1.4.5-.1 1.1-.3 1.6-.4 1.4-.4 2.8-.8 4.3-1.2 3.4-1 6.7-2 10.1-3 4.8-1.4 9.6-3.1 14.5-4.7 4.8-1.6 9.6-3.5 14.4-5.3 1.9-.8 3.9-1.6 5.8-2.4-2 4.2-4 8.5-6.2 12.7-6.6 13.4-14.1 25.9-22.1 37.8-.4.5-.8 1-1.1 1.5-3.6 4.9-7.2 9.7-11 14.3-4.7 5.8-9.7 11.4-15 16.5-4.7 5.1-10 9.3-15.1 13.8-1.2 1.1-2.6 2.2-3.9 3.1-1.3 1-2.7 2-4 3-1.3 1-2.7 2-4 3-1.3 1-2.6 2-4 2.8-14.9 10-30.4 17.5-45.9 23-7.2 2.5-14.4 4.7-21.4 6.3-.6.2-1.1.3-1.7.4-.8.2-1.6.3-2.5.5-1.4.3-2.8.5-4.2.8-2.8.5-5.5 1-8.2 1.5-5.4.8-10.7 1.2-15.9 1.8-5.2.4-10.2.5-15.1.7-1.2 0-2.4.1-3.7.1-1.2 0-2.5-.1-3.7-.1-2.4-.1-4.8-.1-7.2-.2-1.2 0-2.4-.1-3.5-.1h-2.6l-.7-.1c-2.3-.2-4.5-.3-6.7-.5-4.4-.3-8.5-.8-12.6-1.2-4-.5-7.8-1-11.5-1.5-3.6-.6-7.1-1.2-10.4-1.8-11.8-2.3-20.9-5.4-27.2-7.7.4-4-1-8.2-4.1-11.3-5.5-5.5-14.4-5.5-19.9 0-5.5 5.5-5.5 14.4 0 19.9 5.5 5.5 14.4 5.5 19.9 0l.4-.4c7.1 2.6 16.8 5.8 29.2 8.1 3.4.6 7 1.2 10.8 1.8 3.8.5 7.7 1 11.9 1.4 4.1.3 8.4.8 12.9 1.1 2.2.1 4.5.3 6.8.4l1 .1h2.6c1.2 0 2.3.1 3.5.1 2.4.1 4.8.1 7.2.2 1.2 0 2.5.1 3.7.1 1.2 0 2.5-.1 3.8-.1 2.8-.2 5.8-.3 8.7-.4 2.4-.1 4.8-.2 7.2-.4 5.4-.7 10.9-1.2 16.5-2 .8-.2 1.7-.3 2.5-.5l6-1.2c1.4-.3 2.9-.6 4.3-.8 1.4-.3 2.9-.5 4.3-1 23.1-5.6 47.2-15.6 69.7-30.9 1.5-.9 2.8-1.9 4.2-3 1.4-1 2.7-2.1 4.1-3.1 1.4-1 2.7-2.1 4.1-3.1 1.4-1 2.8-2.1 4-3.3 5-4.3 10.5-8.8 15.3-14zM552.5 660c-2.9-2.9-2.8-7.5 0-10.3 2.8-2.8 7.5-2.8 10.3 0 2.8 2.8 2.8 7.5 0 10.3s-7.5 2.9-10.3 0z"/><circle cx="116.5" cy="515.2" r="14.1"/><g><path d="M23 448.8l-.6-.3c-1.9 3.8-3.2 7.3-4.1 10.4-.5 1.7-.8 3.3-1.1 4.7 0 .3.1.5.1.8.3-1.6.8-3.4 1.4-5.4.9-3.1 2.3-6.6 4.3-10.2zM790.5 416.1l1.2 3.3c2-3.4 3.6-6.9 4.7-10.5.1-.5.3-.9.4-1.4l-2.4-4.8c-1-1.6-2-3.2-3.1-4.7-.1 5.7-.4 11.3-.7 16.9 0 .4-.1.8-.1 1.2zM718.3 356.1c10.8 4.7 21.4 9.8 31.2 16.1 9.8 6.2 19.1 13.3 26.8 21.7l1.5 1.5 1.3 1.7 2.6 3.3c.6.7 1.1 1.5 1.6 2.3.1-4.8.1-9.7.1-14.6l-.4-.4c-8.5-9.2-18.3-16.7-28.7-23.3-10.4-6.6-21.3-11.9-32.5-16.7-5.2-2.2-10.5-4.3-15.8-6.2 1.6 3.7 3.1 7.5 4.4 11.4 2.7 1 5.3 2.1 7.9 3.2zM794 431.8V434.7c0 1.5 0 3-.1 4.4l-.6 3.8-.3 1.9c-.1.6-.3 1.3-.5 2l-1.1 3.9c-.4 1.3-1 2.6-1.5 3.8-1.7 4.2-3.8 8.1-6.3 11.9-2.7 4.2-5.9 8.2-9.3 11.9-1.1 1.2-2.1 2.3-3.2 3.4-7.9 8-17 14.9-26.4 21-4.7 3.2-9.6 5.9-14.5 8.8-1.3.7-2.6 1.4-4 2.1-.6 3.9-1.3 7.7-2.1 11.5 3.5-1.8 7-3.7 10.5-5.5 5-3 10.1-5.8 15-9.1 7.2-4.7 14.2-9.8 20.7-15.6 2.5-2.2 4.9-4.4 7.2-6.7.4-.5.9-.9 1.3-1.4 8-8.3 15-17.8 19.5-28.9 2.5-5.8 3.8-12 4.6-18.7l.1-4.4v-2.2-.9l-.1-.6.1-1.1-.5-4.8c-.2-1.6-.7-3.1-1-4.7 0-.1-.1-.2-.1-.4-1.3 2.6-2.8 5.1-4.4 7.5-1 1.5-2 2.9-3 4.2zM117.6 176.2c-.1.2-.1.5-.2.7.1-.2.2-.3.3-.5 7.7-11.1 15.6-21.9 23.8-32.2-6.7 5.2-13.2 10.4-19.3 15.7-.9 2.7-1.7 5.4-2.4 8.1-.7 2.7-1.4 5.5-2.2 8.2zM168 113.7c3.6-3.6 7.1-7.3 10.7-10.9 3.7-3.5 7.4-7 11-10.3 3.8-3.2 7.3-6.5 11.1-9.5 4.8-3.9 9.6-7.6 14.4-11 6.4-4.6 12.8-8.8 19.2-12.6 3.8-2.2 7.7-4.3 11.5-6.2 15-7.4 29.7-12.3 43.1-14.6 3.4-.5 6.6-1.1 9.8-1.4 3.2-.2 6.2-.4 9.2-.6 2.9 0 5.8.1 8.5.2 2.7 0 5.3.3 7.7.6 2.4.3 4.8.6 6.9.8 2.1.4 4.1.8 6 1.2 1.9.4 3.6.7 5.2 1.1 1.6.4 3 .9 4.2 1.3.7.2 1.4.4 2 .6 3.8 1.1 5.8 1.7 5.8 1.7s-2.2-.8-6.3-2.2c-.4-.2-.9-.3-1.4-.5-1.3-.4-2.6-1-4.2-1.5-1.6-.4-3.3-.8-5.2-1.3-1.9-.5-3.9-1-6-1.5-2.2-.3-4.5-.7-7-1.1-2.5-.4-5-.8-7.8-.9-2.7-.1-5.6-.4-8.6-.5-3 .1-6.1.2-9.4.3-3.2.1-6.6.7-10 1-13.8 1.9-29.1 6.2-44.6 13.5l-3 1.5c-6.3 3.1-12.7 6.6-19 10.5-8.3 5.1-16.5 10.9-24.8 17.2-3.9 2.9-7.7 6.2-11.6 9.4-3.9 3.4-7.5 6.7-11.4 10.1-3.8 3.4-7.5 7.2-11.2 10.9-3.8 3.7-7.3 7.7-11 11.5-7.8 8.5-15.4 17.5-22.8 26.8 4-3.4 8-6.8 12.3-10.2 5.5-4.4 11.3-8.8 17.2-13.1 3.4-3.6 6.4-7.1 9.5-10.3zM657.3 551.7c-1.1 6.9-2.3 13.8-3.7 20.6-3.4 0-6.7 1.2-9.3 3.8-5.1 5.1-5.1 13.3 0 18.4 1.1 1.1 2.3 1.9 3.6 2.5-.4 1.5-.7 3.1-1.1 4.6-2.1 7.2-4.2 14.5-6.3 21.6-1.2 3.7-2.5 7.4-3.8 11.1 2-.6 3.9-1.1 5.9-1.7.9-2.6 1.8-5.2 2.6-7.8 2.1-7.3 4.3-14.6 6.4-21.9.4-1.5.7-3.1 1.1-4.6 3.6.2 7.2-1 10-3.8 5.1-5.1 5.1-13.3 0-18.4-1.2-1.2-2.7-2.2-4.2-2.8 1.5-7.7 2.9-15.4 4-23.3 8.4-2.7 16.8-5.5 25.2-8.7 10-4 20.1-8.1 30-12.9.8-3.8 1.5-7.6 2.2-11.4-1.6.8-3.1 1.6-4.7 2.3-10.1 5-20.5 9.2-30.8 13.3-6.8 2.5-13.7 4.9-20.5 7.2 1.6-13 2.7-26.2 3-39.4.1-3.1.1-6.3.1-9.4v-3.3l.1-5.9c0-2-.2-3.9-.3-5.9l-.7-11.7-.4-5.9c-.1-2.1-.5-3.9-.7-5.9l-1.5-11.6c-.5-3.8-1.4-7.7-2.1-11.5l-1.1-5.8c-.4-1.9-.7-3.8-1.2-5.7-2-7.5-3.6-15.1-6.1-22.4-7.2-23.3-16.5-45.5-27.3-66.3 8.4 1.6 16.8 3.3 25.1 5.3 2 .5 3.9 1 5.9 1.4.4 1.9 1.3 3.7 2.8 5.2 4.1 4.1 10.6 4.1 14.7 0 .1-.1.2-.3.4-.4 10.3 2.9 20.4 6.3 30.4 10.1-1.4-3.8-2.9-7.5-4.4-11.2-7.8-2.7-15.6-5.1-23.5-7.3-.3-2.1-1.3-4.2-2.9-5.8-4-4-10.6-4-14.7 0-.3.3-.6.7-.8 1-2-.5-3.9-1-5.9-1.4-10.7-2.5-21.4-4.5-32.2-6.4-1.3-2.3-2.6-4.7-3.9-7-6-10.5-12.3-20.7-18.8-30.5-1.8-2.6-3.5-5.3-5.3-7.9-7.6-11-15.3-21.6-23.2-31.7-16.5-21.2-33.2-40.3-49.4-57.3-3.9-4.3-8.1-8.3-12-12.3-4-4-7.8-7.9-11.8-11.5-3.9-3.6-7.7-7.2-11.4-10.6-3.8-3.3-7.5-6.6-11.1-9.7-1.8-1.6-3.5-3.1-5.3-4.6-1.8-1.5-3.5-2.9-5.2-4.3-3.4-2.8-6.7-5.6-9.9-8.2-6.5-5.1-12.4-9.7-17.8-14-5.5-4.1-10.4-7.7-14.7-10.8-4.3-3.2-8-5.7-11-7.8-6-4.2-9.2-6.4-9.2-6.4-.3-.2-.8-.2-1 .2-.2.3-.2.8.2 1.1 0 0 3.2 2.3 9.1 6.5 2.9 2.1 6.7 4.6 10.9 7.9 4.2 3.2 9.1 6.8 14.5 10.9 5.3 4.2 11.2 9 17.6 14.1 3.1 2.6 6.4 5.4 9.8 8.3 1.7 1.4 3.4 2.9 5.2 4.4 1.7 1.5 3.5 3.1 5.2 4.7 3.5 3.2 7.2 6.4 10.9 9.8 3.6 3.5 7.4 7 11.3 10.7 3.9 3.6 7.7 7.5 11.6 11.5 3.9 4 8 8 11.9 12.3 16 17 32.6 36.1 48.9 57.3 7.1 9.2 14.1 18.8 21 28.9 1.7 2.5 3.5 5.1 5.2 7.7 7.1 10.7 13.9 21.7 20.5 33.3.8 1.4 1.6 2.9 2.4 4.3-11.3-1.8-22.5-3.4-33.7-4.7-10.1-1.2-20.2-2.1-30.3-2.9-.6-4.6-2.6-9-6.1-12.5-8.3-8.3-21.9-8.3-30.2 0-2.9 2.9-4.7 6.4-5.6 10-22.4-.8-44.6-.9-66.5-.3-1.6 0-3.1.1-4.7.1-1.9 0-3.9.1-5.8.2-9.8.3-19.6.8-29.2 1.3-2.2.1-4.5.3-6.7.4-28.5 1.9-56.2 4.8-82.8 8.7-40.8 6-79.1 14.1-113.7 24-16 4.5-31.2 9.5-45.6 14.8-3.6 1.3-7.2 2.7-10.6 4-12.7 5-24.7 10.2-35.7 15.6-13 6.4-24.8 13-35.4 19.9l-.4 2.8c10.9-7 23.3-13.7 37-20.1 10.7-5 22.2-9.7 34.3-14.3 3.5-1.3 7-2.6 10.6-3.9 14.8-5.2 30.5-10.1 47-14.6 34.5-9.4 72.7-17 113.3-22.4 26.5-3.5 54-6.1 82.4-7.7 2.3-.1 4.6-.2 6.9-.4 9.7-.5 19.4-.8 29.2-1.1 1.9-.1 3.8-.1 5.7-.1 1.5 0 2.9-.1 4.3-.1 21.6-.4 43.6-.2 65.8.7.6 4.6 2.6 9 6.1 12.5 8.3 8.3 21.9 8.4 30.2 0 2.8-2.8 4.6-6.2 5.6-9.8 9.9.9 19.9 1.9 29.9 3.1 13.3 1.6 26.5 3.6 39.8 6 11.2 21.5 20.8 44.4 28.1 68.4 2.4 7.2 4 14.7 5.9 22.2.5 1.9.9 3.7 1.2 5.6l1.1 5.6c.7 3.8 1.5 7.5 2 11.4l1.4 11.6c.2 1.9.6 3.9.6 5.7l.3 5.8.6 11.6c.1 1.9.3 3.9.3 5.8l-.1 5.8c0 1.6 0 3.1-.1 4.6 0 3.1-.1 6.3-.2 9.4-.5 13.3-1.7 26.5-3.4 39.7-33.2 10.6-66.5 18.1-98.5 23.7-40.4 7-79 10.9-114.7 13.3-6.7.3-13.4.8-19.9 1.1-.7 0-1.3.1-2 .1-1.4.1-2.9.1-4.3.2-8.6.3-17 .6-25.1 1-3.2.1-6.3.1-9.5.2s-6.4.1-9.6.2c-1.6 0-3.2.1-4.8.1-7.7.2-15.2 0-22.5 0H337c-3.5-.1-7-.2-10.4-.3-6.8-.2-13.3-.3-19.6-.6-12.6-.7-24.1-1.1-34.5-2-5.2-.4-10.1-.8-14.8-1.1-4.6-.4-9-.9-13-1.3-7.7-.8-14.3-1.4-19.7-2.2-.1-5.1-2.1-10.2-6-14.1-8-8-21.1-8-29.1 0s-8 21.1 0 29.1 21 8 29.1 0c2.7-2.7 4.4-5.9 5.3-9.3 5.4.8 12 1.6 19.7 2.5 4.1.5 8.4 1 13.1 1.5 4.7.4 9.6.9 14.8 1.3 10.5 1.1 22.1 1.6 34.7 2.4 6.3.3 12.9.5 19.7.8 3.4.1 6.9.3 10.4.4 3.5.1 7.1.1 10.8.2 7.3.1 14.9.3 22.6.2h2.7c3.2 0 6.4 0 9.6-.1 3.8 0 7.7-.1 11.7-.1 8.2-.2 16.6-.5 25.2-.8.9 0 1.7-.1 2.6-.1.6 0 1.3 0 1.9-.1 7.2-.3 14.5-.7 22-1.1 35.9-2.2 74.9-6 115.6-12.8 31.4-4.9 63.6-11.8 95.9-21.9zM522.1 322.5c-4.8-4.8-4.8-12.6 0-17.4 4.8-4.8 12.6-4.8 17.4 0 4.8 4.8 4.8 12.6 0 17.4-4.8 4.8-12.6 4.8-17.4 0zM498.3 779.4c-2.4.2-4.8.3-7.2.4-2.6.6-5.2 1.1-7.7 1.7-5.1 1.3-10.2 1.9-15.1 2.7-2.5.4-4.9.8-7.3 1.1l-7.2.6c-2.4.2-4.7.4-7 .6l-1.7.1h-1.5c-1.1 0-2.2.1-3.3.1-4.4.2-8.7.2-12.7.3-4.1.1-8-.1-11.7-.1-3.7-.1-7.3-.4-10.6-.6-13.5-1.1-23.8-3.4-30.6-5.2-1.3-.4-2.5-.8-3.5-1.1 0-2.1-.7-4.1-2.3-5.7-3.1-3.1-8-3.1-11.1 0-3.1 3.1-3.1 8 0 11.1 3.1 3.1 8 3.1 11.1 0 .3-.3.5-.6.7-.9 1.1.4 2.2.8 3.6 1.2 7.3 2 17.9 4.4 31.7 5.5 3.4.2 7.1.5 10.9.7 3.8.1 7.8.3 11.9.2 4.1 0 8.4-.1 12.9-.2 1.1 0 2.2-.1 3.4-.1H445.7l1.7-.1c2.3-.2 4.6-.4 7-.5 2.4-.2 4.8-.4 7.2-.5 2.5-.3 5-.7 7.5-1 5.1-.7 10.3-1.4 15.5-2.7 2.6-.6 5.3-1.2 8-1.8l2-.5 2-.6c1.3-.4 2.7-.8 4-1.2 2.7-.8 5.5-1.6 8.2-2.5 2.8-.9 5.4-2.1 8.2-3.1.1 0 .1-.1.2-.1-.8.2-1.7.3-2.5.5-5.5.5-11 1-16.4 1.7zM588.5 729.1c2.3-2.6 4.6-5.1 6.9-7.7l1.7-1.9 1.6-2.1c1.1-1.4 2.1-2.8 3.2-4.2.7-.9 1.4-1.8 2-2.6l1.2-1.5 1.6-2.1 1.5-2.2c1.7-2.6 3.4-5.1 5.1-7.7.3-.4.5-.8.8-1.2 1-1.5 1.9-3 2.8-4.6.9-1.6 1.8-3.1 2.7-4.7 3.8-6.2 6.8-12.9 10-19.5.8-1.6 1.5-3.4 2.2-5.1l2.1-5.2 2.1-5.2 1.1-2.6.9-2.6c.3-.8.6-1.7.9-2.5-1.4.4-2.8.8-4.3 1.2-.5.1-1.1.3-1.6.4l-.7 1.9-1 2.5-2.1 5.1-2.1 5.1c-.7 1.7-1.4 3.4-2.2 5-3.2 6.5-6.1 13.1-9.8 19.1-.9 1.5-1.7 3.1-2.6 4.6-.9 1.5-1.7 3.1-2.7 4.5-1.5 2.3-3 4.5-4.5 6.8-.4.6-.9 1.3-1.3 1.9l-1.4 2.2-1.6 2.1c-1.1 1.4-2.1 2.7-3.2 4.1-.9 1.2-1.8 2.3-2.7 3.5-.2.2-.3.4-.5.6l-1.6 2-1.7 1.9c-2.3 2.5-4.5 5-6.8 7.5l-1.7 1.9-1.8 1.7c-1.2 1.1-2.4 2.3-3.6 3.4-1.2 1.1-2.4 2.3-3.6 3.4L572 738l-1.9 1.5c-2.5 2.1-5 4.1-7.5 6.1l-1.9 1.5c-.6.5-1.3.9-2 1.4l-3.9 2.7c-2.6 1.7-5.1 3.7-7.8 5.2-2.7 1.6-5.4 3.1-8 4.6-1.3.7-2.6 1.6-4 2.3-1.4.7-2.7 1.3-4.1 2l-3 1.5c.6-.1 1.1-.3 1.7-.4 7.1-1.7 14.2-3.8 21.4-6.3 2.3-1.4 4.4-3.1 6.7-4.6 1.3-.9 2.7-1.9 4-2.8l2-1.4 1.9-1.6c2.6-2.1 5.1-4.2 7.7-6.3l2-1.6 1.8-1.7c1.2-1.2 2.4-2.3 3.7-3.5 1.2-1.2 2.5-2.4 3.7-3.5l1.9-1.8 2.1-2.2z"/><path d="M76.8 574.8c-1.7-1.7-3.9-2.6-6.1-2.8-.7-.1-1.4 0-2 0-1-2.2-2.2-4.7-3.3-7.8-1.4-3.5-2.9-7.6-4.7-12.2-1.5-4.6-3.3-9.7-5.1-15.3-.8-2.9-1.7-5.8-2.6-8.9-.4-1.5-.9-3.2-1.3-4.6-.4-1.6-.8-3.2-1.2-4.9-3.3-13.2-6.2-28.4-8.2-45-.6-4.7-1-9.6-1.5-14.5 0-.4-.1-.8-.1-1.3-.8-9.9-1.2-20.3-1.1-31 2.1-2.1 4.3-4.3 6.7-6.4 6-5.4 12.9-10.7 20.6-15.9l.3-2.6c-8.3 5.7-15.7 11.6-22 17.4-2 1.9-3.9 3.7-5.7 5.6 0-1.7 0-3.5.1-5.3.4-19.2 2.4-39.4 5.8-60.1.9-5.2 1.7-10.4 2.9-15.6.5-2.6 1.1-5.2 1.6-7.8l1.8-7.8c1.2-5.2 2.6-10.5 4-15.8 1.3-5.2 3-10.5 4.5-15.8 6.4-21.1 14.1-42.1 23.6-62.4l7.4-15c2.7-4.8 5.3-9.7 8.1-14.5l4.4-7.2c.3-2 .5-4 .8-6 .6-2.9 1.2-5.7 1.8-8.6.5-2.4 1-4.8 1.5-7.1-2.3 3.3-4.5 6.6-6.8 10l-1.2 1.8-1.1 1.8-2.2 3.6-4.5 7.1c-2.9 4.9-5.7 10-8.5 14.9L76 230c-9.8 20.6-17.8 42.1-24.4 63.5-1.6 5.4-3.3 10.7-4.7 16.1-1.4 5.3-2.8 10.6-4 16-.6 2.7-1.3 5.4-1.9 8-.5 2.7-1.1 5.4-1.6 8-1.2 5.3-2 10.6-2.9 15.9-4.5 26.7-6 52.8-5.3 76.9-1.5 1.9-2.8 3.8-4 5.6-1.8 2.7-3.2 5.3-4.5 7.9l.6.3c1.3-2.5 2.9-5.1 4.7-7.7 1-1.5 2.1-3 3.3-4.5.2 5.8.5 11.4.9 17 0 .3 0 .6.1.9.5 7 1.3 13.7 2.1 20.3.6 4.2 1.1 8.4 1.9 12.4.7 4 1.5 8 2.2 11.8.9 3.8 1.7 7.5 2.5 11.1.8 3.6 1.8 7 2.7 10.4.5 1.7.9 3.3 1.3 5 .5 1.8 1 3.2 1.5 4.8 1 3.1 1.9 6 2.8 8.9 1.9 5.7 3.9 10.9 5.6 15.6 3.5 8.6 6.4 15.4 8.7 20.2-.1.1-.3.2-.4.3-3.8 3.8-3.8 10 0 13.8 3 3 7.6 3.6 11.2 1.8.9-.5 1.8-1 2.6-1.8 3.6-3.7 3.6-9.9-.2-13.7z"/></g><g><path d="M155 492.2c-.2-4.1-.4-8.3-.5-12.5-.4-8.5-.7-17.1-1.1-25.9 0-8.8-.1-17.8-.1-26.9 0-4.6-.1-9.2-.1-13.8 0-4.6.1-9.4.2-14 .2-9.4.6-19 1.1-28.7.1-2.7.3-5.5.5-8.2-3.6 1.3-7.1 2.6-10.6 3.9-.1 1.3-.2 2.6-.2 3.8-.5 9.8-.9 19.4-1.1 29-.1 4.8-.2 9.4-.2 14.1 0 4.7 0 9.3.1 13.9.1 9.2.1 18.3.2 27.2.4 8.9.8 17.6 1.1 26.1.2 4.3.4 8.5.5 12.7 0 .7.1 1.5.1 2.2 3.5.9 7 1.9 10.6 2.8-.3-2-.5-3.8-.5-5.7zM348.6 42.3c1 1.1 1.9 2.2 2.9 3.3 3.2-.5 6.4-.9 9.7-1.3-5.6-7.1-11.8-13.9-19-19.8-9.1-7.5-19.8-13.7-31.8-16.2-12-2.6-24.8-1.2-36 3.6-9.9 4.1-18.5 10.3-26.2 17.3l-1 .9c-.7.7-1.4 1.3-2.1 2-8.3 8.3-15.6 17.4-22 27-.5.7-.9 1.4-1.3 2.1 6.4-3.9 12.7-7.4 19-10.5 3.4-4.2 6.9-8.2 10.7-12 7.8-7.6 16.5-14.3 26.3-18.4 9.7-4.2 20.4-5.4 30.7-3.4 10.3 2 19.8 7.4 28.2 14.1 4 3.3 7.8 6.9 11.3 10.7l.6.6z"/><path d="M234.4 59.5c-6.4 3.7-12.8 8-19.2 12.6-4.5 7.8-8.7 15.7-12.5 23.8 4.7-2.6 9.5-5.2 14.4-7.7C221.4 80 226 72 231 64.3c1.1-1.6 2.3-3.2 3.4-4.8zM417.7 206c3.7 17.4 6.7 34.7 9.2 51.8 2.1.1 4.3.1 6.5.2-2.4-17.6-5.3-35.4-9-53.4-4.3-20.9-9.5-42.1-16.1-63.1-6.6-21-14.6-42-24.9-62.1-4.7-9.1-9.9-18-15.9-26.6-3.1.4-6.2.7-9.3 1.2.2.3.5.7.7 1 6.5 8.9 12.2 18.4 17.3 28.1 10.2 19.5 18.2 40.1 24.9 60.7 6.9 20.7 12.2 41.5 16.6 62.2zM440 461.6c.3-4.1.5-8.2.8-12.4.1-4.2.3-8.4.4-12.6 1.5-34 1.3-71-1.1-110.1-.2-3.6-.5-7.2-.7-10.8-1.9 0-3.8.1-5.7.1.3 3.7.6 7.4.9 11 2.8 38.8 3.5 75.6 2.4 109.6-.1 4.3-.2 8.5-.3 12.6-.2 4.1-.4 8.3-.6 12.3-.5 8.1-.8 16-1.3 23.8-1.2 14.1-2.1 27.5-3.6 40.1 1 0 2-.1 2.9-.1 1.7-12.5 2.8-25.8 4.3-39.8.7-7.5 1.1-15.5 1.6-23.7zM427.9 567.7c1-5.9 2-12.1 3-18.4.8-5.2 1.5-10.6 2.2-16.1-.9 0-1.9 0-2.8.1-.6 5.3-1.2 10.6-1.9 15.6-.9 6.4-1.9 12.5-2.7 18.4-.4 3-.9 5.9-1.3 8.7-.2 1.3-.4 2.5-.6 3.7.7 0 1.3 0 2-.1l.6-3.3c.5-2.8 1-5.7 1.5-8.6zM410.8 644.8c.7-2.6 1.5-5.4 2.4-8.6.9-3.1 1.6-6.6 2.6-10.4.9-3.8 1.9-7.8 2.9-12.1.5-2.1 1-4.4 1.6-6.7.5-2.3 1-4.7 1.4-7.1.8-3.9 1.6-8 2.5-12.3-.6 0-1.3 0-1.9.1-.8 4.1-1.5 8.1-2.2 11.9-.5 2.4-.9 4.8-1.3 7.1-.5 2.3-1 4.5-1.5 6.7-1 4.3-1.8 8.4-2.7 12.1-.9 3.8-1.5 7.3-2.4 10.4-.8 3.2-1.6 6-2.3 8.6-2.7 10.3-4.1 15.8-4.1 15.8 0 .1.1.3.2.3.2 0 .3 0 .4-.2 0 .1 1.6-5.3 4.4-15.6zM438.9 308.6c-1.2-15.2-2.8-30.6-4.8-46.3-2.2-.1-4.3-.2-6.5-.3 2.3 15.8 4.1 31.4 5.5 46.8 1.9-.1 3.8-.2 5.8-.2zM785.9 455.2c.9-5.5 1.7-11 2.4-16.6-2.7 2.9-5.5 5.5-8.4 8.1-.3 2.5-.6 4.9-1 7.4-1.3 8.3-2.8 16.4-4.5 24.4 3.4-3.7 6.6-7.7 9.3-11.9.8-3.8 1.5-7.6 2.2-11.4zM685 661c1.7-1.8 3.6-3.7 5.4-5.9 1.9-2.1 3.8-4.4 5.9-6.8 8.2-9.8 17.8-21.9 27.7-36.7 1.5-2.3 3-4.6 4.5-7-2.1 1.4-4.3 2.8-6.5 4.2-.2.4-.4.7-.7 1.1-9.3 15-18.5 27.4-26.3 37.4-4 4.9-7.5 9.4-10.8 13.1-2.6 3.1-4.9 5.8-7 8 .6-.4 1.2-.7 1.8-1.1 1.9-1.9 3.8-4 6-6.3zM769.7 518.4c-5 14.6-10.6 28.3-16.5 41.1-4.8 10.5-10 20.3-15.2 29.4-2.4 1.9-5 3.8-7.6 5.5 1.6-2.9 3.2-5.9 4.9-8.9 2.2-4.4 4.6-8.9 6.9-13.5 2.2-4.7 4.5-9.5 6.7-14.4 8.2-18.8 15.8-39.8 21.6-62.4 2.5-2.2 4.9-4.4 7.2-6.7.4-.5.9-.9 1.3-1.4l-1.5 6c-2.3 8.3-4.8 16.4-7.4 24.3l-.4 1zM790 422c.2-2 .3-4 .5-5.9 0-.4.1-.7.1-1.1.4-5.6.6-11.2.7-16.9.2-8.5.2-17.2-.2-25.9-.2-5.3-.6-10.6-1-16-.7-8.6-1.7-17.2-3-25.9-2.3-14.3-5.3-28.6-9.1-42.7l-3.1-10.6c-1-3.6-2.3-6.9-3.4-10.4-.6-1.8-1.1-3.4-1.8-5.2l-2-5.1-4-10.3c-2-4.9-4.2-9.8-6.4-14.6l.4-.4c6-6 6-15.8 0-21.9-3.8-3.8-9-5.2-13.8-4.2-6.8-12.3-14.3-24.2-22.3-35.6-4.2-5.9-8.6-11.6-12.9-17.3-1.1-1.4-2.2-2.8-3.4-4.2l-3.5-4.1c-2.3-2.7-4.7-5.4-7-8.1-2.3-2.8-4.8-5.2-7.2-7.7l-7.2-7.5c-1.2-1.3-2.3-2.4-3.7-3.8l-3.8-3.6c-2.5-2.4-5.1-4.7-7.6-7.1-4-3.6-8-7.1-12-10.5-.7 1.5-1.6 3-2.9 4.3-.6.6-1.3 1.2-2 1.7 3.9 3.4 7.8 6.8 11.6 10.4l7.3 7 3.7 3.5c1.1 1 2.3 2.5 3.5 3.7 2.4 2.5 4.7 5.1 7.1 7.6 2.3 2.6 4.9 5.1 7 7.7 2.2 2.6 4.4 5.3 6.6 8l3.3 4c1.1 1.3 2.2 2.7 3.2 4.1 4.2 5.6 8.5 11.2 12.6 16.9 7.8 11.1 15 22.7 21.6 34.7-6 6-6 15.8 0 21.9 3.6 3.6 8.5 5 13.2 4.3 2.1 4.7 4.2 9.4 6.1 14.2l3.9 10 2 5c.6 1.5 1.2 3.4 1.8 5.1 1.1 3.4 2.4 6.9 3.4 10.3l3.1 10.2c3.8 13.8 6.9 27.7 9.2 41.7.8 5 1.5 10.1 2 15.1.5 4.5 1 9 1.4 13.4.4 4.4.7 8.9 1 13.3.3 4.9.4 9.8.4 14.6.1 4.9 0 9.7-.1 14.6-.1 4-.2 7.9-.4 11.8-.3 6.1-.8 12.2-1.4 18.2 3-3.1 5.7-6.5 8.1-10 .2-.2.3-.4.4-.7zM410.8 6.4c2.1 0 4.4.2 6.8.5 4.9.5 10.5.9 16.8 1.6 3.6.4 7.5.9 11.5 1.5 0 2.5 1 4.9 2.8 6.8 3.8 3.8 10 3.8 13.8 0 1.1-1.1 1.8-2.4 2.3-3.8 4.7.9 9.5 1.8 14.6 3 8.6 1.7 17.6 4.4 27.2 7 4.7 1.5 9.5 3.1 14.4 4.7 1.2.4 2.5.8 3.7 1.2 1.2.5 2.5.9 3.7 1.4 2.5.9 5 1.9 7.5 2.9 20.2 7.9 41.3 18.2 62.4 31.2 5.6 3.5 11.2 7.1 16.8 11 5.6 2.1 10.3 4 14.2 5.7.4-.5.8-.9 1.2-1.4.4-.4.8-.8 1.3-1.1-9.9-7.2-20-13.8-30.1-19.7-21.7-12.8-43.4-22.7-64-30.3-2.6-.9-5.1-1.8-7.7-2.8-1.3-.4-2.5-.9-3.8-1.3-1.3-.4-2.5-.8-3.8-1.2-5-1.5-9.9-3-14.7-4.5-9.7-2.4-18.8-4.9-27.6-6.5-2.2-.4-4.3-.9-6.4-1.3-2.1-.4-4.2-.8-6.2-1.1l-2.1-.3c0-2.5-1-4.9-2.9-6.8-3.8-3.8-10-3.8-13.8 0-1.2 1.2-2 2.7-2.5 4.3-.5-.1-1.1-.1-1.6-.2-3.5-.3-6.9-.7-10-1-12.8-.8-22.8-1.1-29.6-.8-6.8.2-10.4.3-10.4.3s3.6.2 10.4.6c1.8.2 3.7.3 5.8.4zM198.9 692.4c-2.6-2.6-6.1-4-9.5-4.1-.3-.9-.6-1.9-.9-2.9-.8-2.5-1.7-5.3-2.8-8.5-.5-1.6-1-3.2-1.6-4.9-.4-1.7-.9-3.5-1.4-5.3-1.9-7.4-4.2-15.8-6.7-25.3-2.1-9.6-4.3-20.3-6.8-31.9-2.1-11.7-4.1-24.4-6.3-38-.8-6.8-1.7-13.9-2.6-21.1-.4-3.6-.9-7.3-1.3-11-.2-1.9-.4-3.7-.7-5.6-.2-1.9-.3-3.8-.5-5.7-.6-7.7-1.3-15.6-1.9-23.6-.1-.8-.1-1.7-.2-2.5-3.6-1-7.2-2-10.7-3.1.2 2.1.4 4.2.5 6.3.7 8.2 1.3 16.1 2 23.9.2 1.9.3 3.9.5 5.8s.5 3.8.7 5.7c.5 3.8.9 7.5 1.4 11.2.9 7.3 1.8 14.4 2.7 21.3 2.4 13.7 4.4 26.6 6.6 38.4 2.6 11.8 4.9 22.6 7 32.4 2.6 9.7 5 18.4 7 25.9.5 1.9 1 3.7 1.5 5.4.6 1.7 1.1 3.3 1.6 4.9 1 3.1 2 5.9 2.8 8.4.3 1 .7 2 1 2.9-.4.3-.9.7-1.3 1.1-5.5 5.5-5.5 14.4 0 19.9 5.5 5.5 14.4 5.5 19.9 0 5.5-5.5 5.5-14.4 0-20zM149.8 274.9c.9.9 2 1.7 3 2.3-4.2 29-6.8 57.4-8.4 84.8 3.5-1.4 7-2.7 10.6-4 1.6-25.7 4.2-52.2 8-79.3 2.5-.6 5-1.8 6.9-3.8 5.6-5.6 5.6-14.6 0-20.2-.9-.9-1.8-1.6-2.9-2.2.2-1.1.4-2.3.6-3.4.9-5 1.8-10 2.8-15 4.9-.2 9.8-2.2 13.6-6 8-8 8-21 0-29.1-1.5-1.5-3.3-2.8-5.1-3.7 5.9-24.1 13.2-48.2 22.3-71.8 3.2-8.1 6.6-16.1 10.3-23.9-4.7 2.4-9.3 4.9-13.9 7.5-1.9 4.3-3.7 8.6-5.4 12.9-9.5 24.1-17 48.6-23.1 73-5.2.1-10.3 2.1-14.3 6-8 8-8 21.1 0 29.1 1.7 1.7 3.6 3 5.6 3.9-1 5.1-2 10.2-2.9 15.2-.2 1.2-.4 2.3-.6 3.5-2.6.5-5.2 1.8-7.2 3.9-5.5 5.7-5.5 14.7.1 20.3zm15.7-15.7c3.1 3.1 3.1 8.2 0 11.3-3.1 3.1-8.2 3.1-11.3 0-3.1-3.1-3.1-8.2 0-11.3 3.1-3.2 8.2-3.2 11.3 0zm-4.2-37.5c-4.5-4.5-4.5-11.8 0-16.3s11.8-4.5 16.3 0 4.5 11.8 0 16.3-11.8 4.5-16.3 0zM38.5 511c-3.3-3.3-7.9-4.6-12.2-3.9l-1.6-6.4c-1.6-6.3-3.4-14-5.1-22.9-1.6-8.9-3.3-19-4.5-30-1.3-11-2.2-23.1-2.6-35.8-.4-12.7-.1-26.2.8-40 .7-10.8 1.9-21.8 3.6-33 2.7-.5 5.2-1.8 7.3-3.9 5.5-5.5 5.5-14.4 0-19.9-.8-.8-1.6-1.4-2.5-2 2-8.9 4.2-17.8 6.8-26.6 4.1-14.2 9-28.2 14.6-41.6 2.8-6.7 5.8-13.3 8.8-19.8 3.1-6.4 6.3-12.7 9.7-18.8 13.3-24.4 28.3-45.7 42.5-63 7.1-8.6 13.9-16.3 20.1-22.9 6.4-6.6 12.1-12 16.8-16.5 4.8-4.5 8.5-8 11.1-10.4 2.6-2.4 3.9-3.7 3.9-3.7s-1.5 1.2-4.2 3.3c-2.8 2.2-6.8 5.4-11.8 9.6-5 4.2-11.1 9.4-17.9 15.6-6.7 6.3-14.1 13.5-21.6 22-7.6 8.4-15.5 17.8-23.1 28.3-7.7 10.5-15.4 21.8-22.4 34.1-7.1 12.3-13.8 25.3-19.7 39-5.9 13.7-11.1 27.9-15.5 42.4-2.7 9-4.9 18.1-6.9 27.1-3.1.3-6.1 1.7-8.5 4-5.5 5.5-5.5 14.4 0 19.9 1.1 1.1 2.3 1.9 3.6 2.6-1.9 11.2-3 22.5-3.6 33.6-.8 14.2-.7 27.9 0 40.9.3 6.5.9 12.8 1.4 18.9.7 6.1 1.4 11.9 2.3 17.5.8 5.6 1.8 10.9 2.8 16 1.1 5 2.1 9.8 3.2 14.3 2.2 8.9 4.3 16.6 6.3 22.9.7 2.3 1.4 4.4 2 6.4-1.4.7-2.7 1.6-3.8 2.7-5.5 5.5-5.5 14.4 0 19.9 5.5 5.5 14.4 5.5 20 0 5.4-5.5 5.4-14.4-.1-19.9z"/><g><path d="M690.2 307.4c6.2 2.2 12.4 4.6 18.6 7.1 19.3 8 38.5 17.4 55.6 29.9 6.4 4.7 12.4 9.9 17.7 15.7-.4-4.5-.8-8.9-1.4-13.4-3.6-3.3-7.4-6.3-11.3-9.1-18.1-13.1-37.8-22.5-57.6-30.5-9-3.6-18-6.9-27.1-9.9 1.1 2 2.3 4.1 3.4 6.2.7 1.4 1.4 2.7 2.1 4zM650.3 294.8c11.4 3.2 22.8 6.7 34.2 10.6v-.1c-1.6-3.1-3.2-6.2-5-9.2-.1-.2-.3-.5-.4-.7-28.8-9.2-57.5-15.6-85.1-20.8-.4-.1-.8-.1-1.2-.2 1.8 2.6 3.5 5.2 5.3 7.9 17.1 3.5 34.6 7.6 52.2 12.5zM433.5 258c-2.2-.1-4.4-.1-6.5-.2-10.4-.3-20.4-.4-30-.4h-5.4c-13.1.1-25.5.4-36.9.6-11.9.5-22.8 1-32.6 1.4-9.8.7-18.6 1.3-26.3 1.9-7.6.5-14.1 1.3-19.4 1.8-10.5 1.1-16.1 1.6-16.1 1.6s5.6-.4 16.2-1.1c5.3-.3 11.8-1 19.4-1.2 7.6-.3 16.4-.7 26.3-1.2 9.8-.2 20.7-.4 32.6-.7 11.5.1 24 0 37.3.2h1.1c1.4 0 2.9.1 4.4.1 9.6.2 19.6.6 30.1 1.1 2.1.1 4.3.2 6.5.3.9.1 1.8.1 2.7.1 15.3.8 31.5 1.9 48.3 3.4 33.6 3 69.8 7.8 107.7 15.2.2 0 .3.1.5.1-1.7-2.6-3.4-5.1-5.2-7.7-36.1-6.4-70.6-10.3-102.6-12.8-18.3-1.2-35.7-2-52.1-2.5zM708.9 476.7c-13.7 5.5-27.7 10.2-41.8 14.4 0 3.1 0 6.3-.1 9.4 15.3-4.4 30.5-9.4 45.3-15.3 4.1-1.6 8.1-3.4 12.2-5.1.1-1 .2-2 .2-3l.3-7.1c-5.3 2.2-10.7 4.5-16.1 6.7zM24.1 448.9c-.3-.2-.6-.3-.9-.5l-.6-.3c-3.3-1.9-6-3.4-8-4.7v.2c2 1.3 4.6 2.9 7.8 4.8l.6.3c.3.2.6.3.9.5 2.4 1.4 5.2 3 8.3 4.7 0-.3 0-.6-.1-.9-3-1.4-5.7-2.8-8-4.1zM662.3 501.8c.1-3.1.2-6.3.2-9.4-5.7 1.6-11.4 3.2-17.2 4.7-21.6 5.5-43.4 10-65.1 13.7-43.5 7.3-86.9 11.7-128.9 13.8-5.7.3-11.4.5-17.1.7-1 0-2 .1-2.9.1-11.7.4-23.4.7-34.9.8-3.1 0-6.2.1-9.3.1-17.8 0-35.3-.4-52.3-1.3-.6-2.7-1.9-5.2-4-7.2-5.6-5.4-14.5-5.2-19.9.4-1.4 1.5-2.4 3.2-3.1 5-30.2-2.5-59-6.3-85.6-11-23.9-4.2-46.2-9.1-66.7-14.3-3.6-.9-7.1-1.8-10.6-2.8-4.2-1.1-8.3-2.3-12.3-3.4-24.8-7.1-46.2-14.7-63.8-21.8v2c17.4 7.5 38.4 15.5 62.8 23 4.4 1.4 8.9 2.7 13.5 4.1 3.5 1 7.1 2 10.7 3.1 20.1 5.6 41.9 10.8 65.4 15.2 26.7 5.1 55.5 9.3 85.8 12.2.3 3.2 1.7 6.3 4.3 8.7 5.6 5.4 14.5 5.2 19.9-.4 1.7-1.8 2.8-3.9 3.4-6.1 16.7 1.1 33.8 1.8 51.2 2 3.1 0 6.2.1 9.3.1 11.6.1 23.4-.1 35.3-.4.9 0 1.9 0 2.8-.1 6.1-.2 12.3-.4 18.5-.7 42.3-1.9 86-5.8 130-13.1 22-3.7 44-8.1 65.9-13.7 4.8-1.3 9.7-2.6 14.7-4zM40.8 457.5c0 .4.1.8.1 1.3 6.1 3.2 13.2 6.6 21.2 10.2v-1.8c-8-3.5-15.1-6.8-21.3-9.7zM798.3 394.1l.1 1.9v1.8l-.1 2.1-.2 1.8c-.2 1.9-.7 4-1.2 5.9-.1.5-.3.9-.4 1.4-1.1 3.6-2.8 7.1-4.7 10.5-.5.9-1.1 1.7-1.6 2.6-.2.2-.3.5-.4.7-2.4 3.5-5.1 6.8-8.1 10-4.4 4.6-9.2 8.9-14.4 12.8-11.3 8.5-23.8 15.6-36.8 21.8l-.3 10v.2c14.9-6.9 29.3-14.9 42.6-24.9 2.5-1.9 4.9-3.9 7.3-6 2.9-2.6 5.7-5.2 8.4-8.1 2-2.2 3.9-4.4 5.7-6.7 1-1.3 2-2.7 3-4.1 1.6-2.4 3.1-4.9 4.4-7.5 1.4-2.7 2.6-5.6 3.5-8.5.9-2.9 1.6-5.8 1.9-9l.3-2.4.1-2.1v-1V396l-.1-2.3c-.7-12.3-6.1-23.5-13.1-32.6-1.2-1.6-2.6-3.2-3.9-4.7.4 5.3.8 10.7 1 16 3.9 6.6 6.7 14 7 21.7zM601.1 706l1.6-2.1 1.4-2.2c.4-.6.9-1.3 1.3-1.9-2.4.8-4.8 1.6-7.1 2.3l-13.5 4.2c-4.5 1.2-9 2.5-13.4 3.7-4.4 1.3-8.8 2.1-13 3.2-4.3.9-8.4 2.1-12.5 2.8-8.2 1.5-15.9 3.1-23.1 4-3.6.5-7 1-10.3 1.5-3.3.3-6.4.7-9.3 1-2.9.3-5.7.6-8.2.8-.7.1-1.4.1-2.1.1-.9-2.9-2.5-5.5-4.7-7.8-7.4-7.4-19.5-7.4-26.9 0-7.4 7.4-7.4 19.5 0 26.9 7.4 7.4 19.5 7.4 26.9 0 2.6-2.6 4.3-5.9 5.1-9.2.8 0 1.5 0 2.4-.1 2.6-.2 5.4-.4 8.5-.7 3-.2 6.2-.5 9.6-.8 3.4-.4 6.9-.9 10.6-1.4 7.4-.8 15.3-2.4 23.7-4 4.2-.7 8.4-1.9 12.8-2.9 4.3-1.1 8.8-2 13.3-3.4 4.5-1.3 9-2.6 13.6-3.9 2.5-.8 5-1.6 7.5-2.5.9-1.2 1.8-2.3 2.7-3.5 1-1.4 2-2.8 3.1-4.1zm-133.4 30.1c-3.9-3.9-3.9-10.2 0-14.1 3.9-3.9 10.2-3.9 14.1 0 3.9 3.9 3.9 10.2 0 14.1-3.9 3.9-10.2 3.9-14.1 0zM652.4 681.2c-8.7 4-17.6 7.7-26.7 11.2l-3.4 1.3-1.6.6-1.7.6-5.5 2c-1.7 2.6-3.4 5.2-5.1 7.7l-1.5 2.2-1.6 2.1-1.2 1.5c3.8-1.3 7.5-2.8 11.3-4.2l6.8-2.7 1.7-.7 1.8-.7 3.4-1.4c4.8-2 9.5-4.1 14.2-6.3 3.8-4.6 7.4-9.4 11-14.3-.7.5-1.3.8-1.9 1.1zM719 640.5c4.6-5.9 8.1-11.8 10.7-17.3 2.7-5.5 4.3-10.5 5.4-14.7.3-1 .5-2 .8-3 .2-.9.3-1.8.5-2.7.3-1.6.5-3.1.6-4.2v-.1c-.1.1-.3.2-.4.3-.2 1.1-.6 2.4-1 3.9-.4 1.6-1 3.4-1.7 5.4-1.4 4-3.4 8.8-6.4 13.9-3 5.1-6.8 10.5-11.6 15.9s-10.6 10.7-17.1 15.9c-6 4.7-12.7 9.2-19.8 13.4-.6.4-1.2.7-1.8 1.1-3.5 2.1-7.1 4-10.8 5.9l-5.4 8.4c-1.2 1.7-2.4 3.3-3.6 5 8.2-4.2 16-8.7 23.4-13.5 15.7-10 29.1-21.7 38.2-33.6zM430.5 49.9c19.8.4 39 1.6 57 3.8 18.1 2.1 35 5 50.6 8.2 15.5 3.3 29.7 6.8 42.1 10.3 12.4 3.5 23.1 7 31.9 10 5.7 2 10.6 3.8 14.5 5.3-.7 4.3.6 8.8 3.9 12.1 4.9 4.9 12.4 5.4 17.9 1.7.7-.5 1.4-1 2-1.7 1.3-1.3 2.2-2.7 2.9-4.3 2.3-5.2 1.3-11.4-2.9-15.7-5.1-5.1-13.1-5.5-18.7-1.1-.4.3-.9.7-1.3 1.1-.4.4-.8.9-1.2 1.4-3.9-1.6-8.6-3.6-14.2-5.7-.2-.1-.4-.1-.5-.2-17.6-6.6-43.1-15.1-74.7-22-15.8-3.4-33-6.5-51.3-8.8-18.3-2.3-37.8-3.9-58-4.1-20.2-.3-41.1.7-62.1 3-2.4.3-4.9.6-7.3.9-3.2.4-6.4.9-9.7 1.3-15.5 2.3-30.9 5.3-46.2 9.2-20.8 5.5-41.3 12.4-60.8 20.7-9.4 3.9-18.5 8.2-27.4 12.7-4.9 2.5-9.7 5-14.4 7.7-4.6 2.6-9.1 5.2-13.6 7.8-10.7 6.4-20.8 13.1-30.4 20.1-6 4.3-11.7 8.7-17.2 13.1-4.2 3.4-8.3 6.8-12.3 10.2-1.2 1.1-2.4 2.1-3.7 3.2-.2.4-.3.9-.5 1.3-.9 2.8-1.9 5.5-2.8 8.2 6.1-5.2 12.6-10.5 19.3-15.7 1.2-.9 2.3-1.8 3.5-2.7 9.3-7 19.3-13.9 29.8-20.6.1 0 .1-.1.2-.1 5.8-3.7 11.6-7.3 17.7-10.9l4.8-2.7c4.5-2.6 9.2-5.1 13.9-7.5 11.6-6 23.7-11.6 36.1-16.6 19.3-7.8 39.4-14.3 59.9-19.3 16.8-4.2 33.8-7.4 50.7-9.6l9.3-1.2c.7-.1 1.3-.2 2-.2 20.9-2.1 41.4-3 61.2-2.6zM437.1 722.2c-3.8-3.8-10-3.8-13.8 0-3.8 3.8-3.8 10 0 13.8 3.8 3.8 10 3.8 13.8 0 3.8-3.8 3.8-10 0-13.8zM53 230.7c2.9-3.6 6.2-7.6 10-11.8 3.7-4.2 7.6-8.8 12.1-13.5 2.2-2.4 4.5-4.8 6.8-7.3 2.4-2.5 4.9-5 7.5-7.6 5-5.2 10.6-10.5 16.4-16l3.6-3.3c.5-1.9 1.1-3.9 1.6-5.8.2-.9.5-1.8.7-2.6-3.1 2.9-6.1 5.7-9 8.6-5.6 5.7-11.1 11.1-16 16.6-2.5 2.7-4.9 5.3-7.2 7.9-2.3 2.6-4.5 5.2-6.6 7.7-4.3 4.9-8.1 9.7-11.6 14.1-3.6 4.3-6.7 8.5-9.5 12.2-2.1 2.7-4 5.2-5.7 7.6l-1.5 3.6c.2-.2.3-.4.5-.6 2.2-3 5-6.2 7.9-9.8z"/></g></g></g></svg>